<svg width="24" height="24" viewBox="0 0 24 24" fill="none" xmlns="http://www.w3.org/2000/svg" data-reactroot="">
<circle stroke-width="1" stroke="#00b900" fill="none" r="8" cy="12" cx="12"></circle>
<path fill="none" d="M14.5904 19.5713C17.7987 21.739 20.506 22.6045 21.5553 21.5553C22.6045 20.506 21.739 17.7987 19.5713 14.5904C18.7728 16.9249 16.9249 18.7728 14.5904 19.5713Z" undefined="1"></path>
<path fill="none" d="M4.4287 9.40958C5.22722 7.07508 7.07508 5.22722 9.40958 4.4287C6.20128 2.26097 3.49402 1.39548 2.44475 2.44475C1.39548 3.49402 2.26097 6.20128 4.4287 9.40958Z" undefined="1"></path>
<path stroke-width="1" stroke="#00b900" d="M14.5904 19.5713C17.7987 21.739 20.506 22.6045 21.5553 21.5553C22.6045 20.506 21.739 17.7987 19.5713 14.5904C18.7728 16.9249 16.9249 18.7728 14.5904 19.5713Z"></path>
<path stroke-width="1" stroke="#00b900" d="M4.4287 9.40958C5.22722 7.07508 7.07508 5.22722 9.40958 4.4287C6.20128 2.26097 3.49402 1.39548 2.44475 2.44475C1.39548 3.49402 2.26097 6.20128 4.4287 9.40958Z"></path>
<path stroke-width="1" stroke="#00b900" fill="none" d="M19.5713 14.5904C18.7728 16.9249 16.9249 18.7728 14.5904 19.5713C12.8338 18.3844 10.927 16.8072 9.05993 14.9401C7.19283 13.073 5.61558 11.1662 4.42871 9.40959C5.22723 7.07509 7.07509 5.22723 9.40959 4.42871C11.1662 5.61558 13.073 7.19283 14.9401 9.05993C16.8072 10.927 18.3844 12.8338 19.5713 14.5904Z"></path>
<path stroke-linejoin="round" stroke-linecap="round" stroke-width="1" stroke="#00b900" d="M3 21L21 3"></path>
<circle stroke-width="1" stroke="#00b900" fill="none" r="1" cy="3" cx="21"></circle>
<circle stroke-width="1" stroke="#00b900" fill="none" r="1" cy="21" cx="3"></circle>
</svg>
