<svg width="24" height="24" viewBox="0 0 24 24" fill="none" xmlns="http://www.w3.org/2000/svg" data-reactroot="">
<path stroke-linejoin="round" stroke-miterlimit="10" stroke-width="1" stroke="#D6B10B" fill="none" d="M2.74012 15.61C2.55012 15.14 2.39012 14.66 2.28012 14.16C1.62012 11.37 2.13012 8.35999 3.76012 5.98999C5.41012 3.59999 8.08012 2.35999 10.9301 2.06999C12.7501 1.87999 14.6301 2.08999 16.3501 2.71999C18.5201 3.51999 20.5001 5.04999 21.4901 7.16999C22.1801 8.64999 22.2701 10.6 21.1301 11.76C20.3901 12.52 19.2901 12.77 18.4101 13.35C17.3901 14.01 16.6601 15.12 16.4601 16.33C16.3201 17.15 16.4001 18.01 16.2001 18.82C15.5301 21.52 12.2301 22.39 9.82012 21.85C7.06012 21.22 4.65012 19.13 3.27012 16.7C3.07012 16.34 2.90012 15.98 2.74012 15.61Z" clip-rule="evenodd" fill-rule="evenodd"></path>
<path stroke-linejoin="round" stroke-miterlimit="10" stroke-width="1" stroke="#D6B10B" fill="none" d="M13 7C13.5523 7 14 6.55228 14 6C14 5.44772 13.5523 5 13 5C12.4477 5 12 5.44772 12 6C12 6.55228 12.4477 7 13 7Z"></path>
<path stroke-linejoin="round" stroke-miterlimit="10" stroke-width="1" stroke="#D6B10B" fill="none" d="M18 10C18.5523 10 19 9.55228 19 9C19 8.44772 18.5523 8 18 8C17.4477 8 17 8.44772 17 9C17 9.55228 17.4477 10 18 10Z"></path>
<path stroke-linejoin="round" stroke-miterlimit="10" stroke-width="1" stroke="#D6B10B" fill="none" d="M8 9C8.55228 9 9 8.55228 9 8C9 7.44772 8.55228 7 8 7C7.44772 7 7 7.44772 7 8C7 8.55228 7.44772 9 8 9Z"></path>
<path stroke-linejoin="round" stroke-miterlimit="10" stroke-width="1" stroke="#D6B10B" fill="none" d="M6 14C6.55228 14 7 13.5523 7 13C7 12.4477 6.55228 12 6 12C5.44772 12 5 12.4477 5 13C5 13.5523 5.44772 14 6 14Z"></path>
<path stroke-linejoin="round" stroke-miterlimit="10" stroke-width="1" stroke="#D6B10B" fill="none" d="M11 19C12.1046 19 13 18.3284 13 17.5C13 16.6716 12.1046 16 11 16C9.89543 16 9 16.6716 9 17.5C9 18.3284 9.89543 19 11 19Z"></path>
</svg>
