<svg width="200" height="150" viewBox="0 0 800 600" fill="none" xmlns="http://www.w3.org/2000/svg" data-reactroot="">
<path d="M647.078 502.036C647.078 546.656 547.66 590.001 419.517 590.001C291.374 590.001 183.032 553.667 183.032 502.036C183.032 450.404 285.315 408.334 413.458 408.334C541.601 408.334 647.078 463.79 647.078 502.036Z" fill="#c6e6c3" fill-opacity="0.2"></path>
<path d="M591.938 487.375C589.389 487.375 586.839 486.483 586.839 484.188C586.839 481.893 587.476 480.363 590.026 480.363C592.576 480.363 621.897 482.913 621.897 482.913C621.897 482.913 625.739 483.55 625.084 487.375C624.669 489.791 619.984 489.924 619.984 489.924C619.984 489.924 594.488 487.375 591.938 487.375Z" fill="#4E2668"></path>
<path d="M591.938 487.375C589.389 487.375 586.839 486.483 586.839 484.188C586.839 481.893 587.476 480.363 590.026 480.363C592.576 480.363 621.897 482.913 621.897 482.913C621.897 482.913 625.739 483.55 625.084 487.375C624.669 489.791 619.984 489.924 619.984 489.924C619.984 489.924 594.488 487.375 591.938 487.375Z" fill="black" fill-opacity="0.3"></path>
<path d="M591.938 486.101C589.389 486.101 586.839 485.209 586.839 482.914C586.839 480.619 588.751 479.727 591.301 479.727C593.85 479.727 619.566 482.276 619.984 482.276C620.403 482.276 625.539 483.447 625.084 486.101C624.669 488.517 619.984 488.65 619.984 488.65C619.984 488.65 594.488 486.101 591.938 486.101Z" fill="#9ff098"></path>
<path d="M591.938 486.101C589.389 486.101 586.839 485.209 586.839 482.914C586.839 480.619 588.751 479.727 591.301 479.727C593.85 479.727 619.566 482.276 619.984 482.276C620.403 482.276 625.539 483.447 625.084 486.101C624.669 488.517 619.984 488.65 619.984 488.65C619.984 488.65 594.488 486.101 591.938 486.101Z" fill="black" fill-opacity="0.2"></path>
<path d="M470.827 347.141L475.927 354.152V359.252L374.576 360.527L368.839 356.702L367.564 349.69L470.827 347.141Z" fill="#c6e6c3"></path>
<path d="M375.214 367.539V359.89L465.728 358.615V367.539H375.214Z" fill="#9ff098"></path>
<path d="M373.938 354.153L367.564 349.691L368.839 356.703L374.576 360.528L475.927 359.253V354.153H373.938Z" fill="black" fill-opacity="0.3"></path>
<path d="M373.94 359.888L291.074 384.748V391.76L287.249 390.485L286.612 381.561L372.027 356.701L373.94 359.888Z" fill="black" fill-opacity="0.2"></path>
<path d="M373.939 359.89V366.265L291.073 391.762L287.249 390.487L286.611 381.563L372.026 356.703L373.939 359.89Z" fill="#9ff098"></path>
<path d="M423.022 367.944C422.114 372.03 418.822 374.186 418.822 374.186C418.822 374.186 421.989 372.316 423.968 371.039C429.329 367.578 431.536 364.446 437.084 361.295C440.628 359.283 443.925 359.998 446.532 356.866C447.482 355.726 448.483 353.605 448.483 353.605C446.819 354.23 448.029 352.735 439.895 355.157C431.761 357.578 423.93 363.858 423.022 367.944Z" fill="#9ff098"></path>
<path d="M423.022 367.944C422.114 372.03 418.822 374.186 418.822 374.186C418.822 374.186 421.989 372.316 423.968 371.039C429.329 367.578 431.536 364.446 437.084 361.295C440.628 359.283 443.925 359.998 446.532 356.866C447.482 355.726 448.483 353.605 448.483 353.605C446.819 354.23 448.029 352.735 439.895 355.157C431.761 357.578 423.93 363.858 423.022 367.944Z" fill="black" fill-opacity="0.2"></path>
<path d="M383.411 336.203C383.411 325.912 388.102 321.07 388.102 321.07L389.527 318.951C389.527 318.951 395.971 324.55 397.787 326.215C399.603 327.88 403.992 333.782 406.11 335.446C408.229 337.111 421.243 344.072 423.665 345.585C426.086 347.099 436.074 353.157 438.495 358.903C440.917 364.648 436.604 389.845 436.452 392.266C436.301 394.688 433.917 422.646 434.674 424.992C435.431 427.337 435.809 426.921 438.457 430.213C441.106 433.504 448.332 436.687 448.029 438.2C447.726 439.713 445.002 440.167 442.279 439.713C439.555 439.259 438.495 436.838 435.166 435.627C431.837 434.417 429.567 434.871 428.659 432.903C427.751 430.936 428.659 429.12 428.659 426.699C428.659 424.278 427.524 413.538 426.843 408.993C426.162 404.448 424.026 396.579 423.665 387.197C423.304 377.814 425.027 366.166 423.665 363.291C422.303 360.416 402.327 355.422 399.452 354.211C396.577 353.001 383.411 346.493 383.411 336.203Z" fill="#F1C5AE"></path>
<path d="M399.451 354.212C396.575 353.001 383.41 346.494 383.41 336.203C383.41 336.203 394.172 346.252 402.242 350.961C411.167 356.169 426.049 358.118 426.842 360.705C427.635 363.291 426.173 376.383 426.842 386.393C427.435 395.269 428.797 400.143 429.701 408.993C430.407 415.896 431.178 426.699 431.178 426.699L435.165 435.628C431.836 434.417 429.566 434.871 428.658 432.904C427.749 430.936 428.658 429.12 428.658 426.699C428.658 424.278 427.523 413.538 426.842 408.993C426.161 404.449 424.025 396.579 423.664 387.197C423.303 377.814 425.026 366.167 423.664 363.291C422.302 360.416 402.326 355.422 399.451 354.212Z" fill="white" fill-opacity="0.1"></path>
<path d="M393.854 312.594L389.617 318.95L399.755 330.602L404.069 334.007L408.382 337.412L426.693 348.308C426.693 348.308 435.145 350.573 436.574 356.475C438.003 362.377 433.396 380.991 433.093 385.833C432.791 390.676 433.502 408.382 433.502 408.382C433.502 408.382 433.503 419.282 432.292 421.401C431.081 423.519 431.913 422.082 430.475 423.898C429.038 425.714 428.659 428.967 428.659 428.967L430.475 433.81C430.475 433.81 431.857 431.794 433.502 432.599C436.31 433.973 435.772 435.777 436.983 439.107C438.194 442.436 439.707 442.436 442.582 443.041C445.457 443.646 450.905 444.554 451.283 441.831C451.662 439.107 443.792 435.475 442.582 433.81C441.372 432.145 440.226 423.671 439.707 421.401C439.188 419.131 443.944 390.681 445.155 384.93C446.366 379.179 448.484 358.901 447.273 354.21C446.063 349.519 439.858 345.281 434.864 341.801C429.87 338.32 423.363 335.596 421.093 332.569C418.823 329.543 418.521 326.214 417.764 323.641C417.008 321.068 417.764 316.68 417.764 316.68L393.854 312.594Z" fill="#DEB19A"></path>
<path d="M428.545 425.596C428.318 427.866 427.195 428.963 427.977 431.12C428.76 433.276 427.977 433.194 427.977 433.639C427.977 434.084 431.533 436.832 431.533 436.832L433.309 435.322C436.357 436.014 436.248 437.894 438.191 440.856C440.133 443.819 441.606 443.471 444.543 443.4C447.481 443.329 452.991 442.962 452.734 440.224C452.556 438.328 448.42 436.719 445.38 435.584C445.38 435.584 443.224 438.383 440.537 436.832C437.851 435.281 435.248 433.683 432.933 431.12C430.619 428.556 428.545 425.596 428.545 425.596Z" fill="#9ff098"></path>
<path d="M428.545 425.596C428.318 427.866 427.195 428.963 427.977 431.12C428.76 433.276 427.977 433.194 427.977 433.639C427.977 434.084 431.533 436.832 431.533 436.832L433.309 435.322C436.357 436.014 436.248 437.894 438.191 440.856C440.133 443.819 441.606 443.471 444.543 443.4C447.481 443.329 452.991 442.962 452.734 440.224C452.556 438.328 448.42 436.719 445.38 435.584C445.38 435.584 443.224 438.383 440.537 436.832C437.851 435.281 435.248 433.683 432.933 431.12C430.619 428.556 428.545 425.596 428.545 425.596Z" fill="black" fill-opacity="0.2"></path>
<path d="M431.533 436.833C431.533 436.833 431.522 434.917 433.309 435.323L431.533 436.833Z" fill="white" fill-opacity="0.2"></path>
<path d="M432.292 421.404C431.081 423.523 431.913 422.085 430.476 423.901C429.038 425.717 428.66 428.971 428.66 428.971L430.476 433.813L433.503 432.603C436.31 433.976 435.773 435.78 436.983 439.11C438.194 442.439 439.707 442.439 442.582 443.044C445.457 443.649 450.905 444.557 451.283 441.834C451.545 439.947 447.853 437.626 445.155 435.824C445.155 435.824 442.28 437.445 441.069 436.84C439.858 436.234 438.648 434.721 436.983 431.695C435.319 428.668 433.261 422.494 432.292 421.404Z" fill="#9ff098"></path>
<path d="M430.474 433.811C430.474 433.811 431.855 431.795 433.501 432.6L430.474 433.811Z" fill="white" fill-opacity="0.2"></path>
<path d="M426.654 248.997C426.957 251.532 423.476 272.302 423.174 275.934C422.871 279.566 411.71 286.754 408.267 289.327C404.825 291.899 391.848 285.733 391.394 282.403C390.94 279.074 388.708 266.357 389.54 263.104C390.373 259.85 402.403 238.512 410.727 237.604C419.05 236.696 426.352 246.462 426.654 248.997Z" fill="black" stroke="black" stroke-width="0.0756639"></path>
<path d="M402.253 252.212C402.581 253.968 402.749 254.999 403.539 256.601C403.539 256.601 408.773 265.203 413.464 264.447C418.155 263.69 421.818 258.001 423.477 254.407C425.135 250.813 424.385 241.468 421.509 238.441C418.007 234.755 413.09 233.618 408.609 236.02C405.147 237.875 403.451 240.074 402.253 243.814C401.261 246.909 401.643 248.951 402.237 252.126L402.253 252.212Z" fill="#F1C5AE"></path>
<path d="M404.904 258.223C404.782 258.05 404.678 257.967 404.678 257.967C404.751 258.049 404.826 258.135 404.904 258.223C405.37 258.883 406.104 260.85 402.325 264.46C397.558 269.014 388.781 271.738 388.781 271.738C388.781 271.738 391.581 275.067 392.64 279.304C393.699 283.542 391.581 288.838 391.581 288.838C391.581 288.838 393.699 301.247 393.699 303.517V312.597L417.912 316.835V307.603C417.912 304.577 423.511 299.734 423.965 295.951C424.419 292.168 422.376 291.411 422.225 287.779C422.074 284.147 422.327 283.496 423.511 281.196C424.696 278.896 424.185 278.896 424.185 278.896C424.185 278.896 417.912 274.916 416.853 273.857C415.794 272.797 412.918 270.376 412.767 268.56C412.616 266.744 412.576 264.46 412.576 264.46C409.647 263.39 406.647 260.193 404.904 258.223Z" fill="#F1C5AE"></path>
<path d="M412.576 264.459C409.814 263.45 406.022 259.442 405.311 258.673C405.251 258.579 405.194 258.545 405.194 258.545C405.194 258.545 405.235 258.59 405.311 258.673C405.488 258.944 405.701 259.712 404.678 261.571C404.678 261.571 407.852 262.402 409.918 264.459C411.985 266.517 412.576 267.371 412.576 267.371L412.576 264.459Z" fill="black" fill-opacity="0.04"></path>
<path d="M393.112 281.245C392.69 278.861 390.418 270.649 385.84 272.227C381.262 273.806 382.393 283.028 382.687 286.76C382.982 290.492 384.413 300.528 384.628 302.181C384.843 303.833 384.632 313.876 389.119 313.613C393.605 313.349 393.08 307.833 393.14 303.758C393.199 299.684 393.533 283.629 393.112 281.245Z" fill="#DBB19B"></path>
<path d="M384.627 302.18C384.842 303.833 384.631 313.876 389.117 313.612C389.117 313.612 387.395 307.262 386.593 303.128C385.442 297.194 385.528 293.752 384.627 287.775C383.965 283.382 382.748 276.555 382.748 276.555C381.994 279.967 382.503 284.432 382.686 286.76C382.981 290.492 384.412 300.528 384.627 302.18Z" fill="#FEFEFE" fill-opacity="0.1"></path>
<path d="M428.571 283.875C427.418 281.745 423.952 276.748 421.038 279.176C418.124 281.604 420.981 290.656 422.438 294.104C423.895 297.553 428 306.371 428.725 307.871C429.451 309.371 432.42 318.968 436.594 317.301C440.768 315.635 438.529 310.566 437.3 306.682C436.07 302.797 429.723 286.004 428.571 283.875Z" fill="#E1B9A4"></path>
<path d="M428.726 307.873C429.452 309.373 432.421 318.969 436.595 317.303C436.595 317.303 431.674 310.206 429.408 305.196C427.304 300.544 425.274 292.795 425.274 292.795L421.039 279.178C418.125 281.606 420.982 290.658 422.439 294.106C423.896 297.555 428 306.373 428.726 307.873Z" fill="black" fill-opacity="0.02"></path>
<path d="M387.041 271.806L395.611 268.738C395.611 268.738 397.687 273.315 399.715 278.541C401.744 283.766 405.172 284.037 408.997 284.037C412.821 284.037 414.734 282.636 414.734 279.449C414.734 276.192 414.382 271.484 414.734 271.288C415.085 271.091 419.142 274.97 420.221 275.784C421.299 276.597 423.967 278.541 423.967 278.541C423.967 278.541 422.075 283.993 422.15 286.415C422.226 288.836 424.571 293.981 424.571 298.218C424.571 302.456 421.356 304.347 419.01 311.649C416.664 318.951 418.897 324.928 420.902 328.749C422.907 332.571 430.019 335.446 433.046 339.078C436.073 342.71 450.147 352.981 448.482 353.606C446.818 354.23 448.028 352.735 439.894 355.157C431.76 357.578 423.929 363.858 423.021 367.944C422.113 372.03 418.821 374.187 418.821 374.187C418.821 374.187 415.492 365.409 412.162 362.383C408.833 359.356 399.11 355.724 394.873 353.606C390.636 351.487 386.318 347.817 383.561 341.802C380.804 335.786 383.22 327.085 387.041 321.523C390.863 315.962 392.187 313.654 392.187 310.93C392.187 308.206 390.56 288.382 390.56 288.382C390.56 288.382 392.641 286.415 390.56 279.449C389.702 276.578 387.041 271.806 387.041 271.806Z" fill="#c6e6c3"></path>
<path d="M387.042 271.806L395.612 268.738C395.612 268.738 397.688 273.315 399.716 278.541C401.745 283.766 405.173 284.037 408.998 284.037C412.822 284.037 414.735 282.636 414.735 279.449C414.735 276.192 414.383 271.484 414.735 271.288C415.086 271.091 419.143 274.97 420.222 275.784C421.3 276.597 423.968 278.541 423.968 278.541C423.968 278.541 422.076 283.993 422.151 286.415C422.227 288.836 424.572 293.981 424.572 298.218C424.572 302.456 421.357 304.347 419.011 311.649C416.665 318.951 418.898 324.928 420.903 328.749C422.908 332.571 430.02 335.446 433.047 339.078C436.074 342.71 450.148 352.981 448.483 353.606C446.819 354.23 448.029 352.735 439.895 355.157C431.761 357.578 423.93 363.858 423.022 367.944C422.114 372.03 418.822 374.187 418.822 374.187C418.822 374.187 415.493 365.409 412.163 362.383C408.834 359.356 399.111 355.724 394.874 353.606C390.636 351.487 386.319 347.817 383.562 341.802C380.805 335.786 383.221 327.085 387.042 321.523C390.863 315.962 392.188 313.654 392.188 310.93C392.188 308.206 390.561 288.382 390.561 288.382C390.561 288.382 392.642 286.415 390.561 279.449C389.703 276.578 387.042 271.806 387.042 271.806Z" fill="#9ff098"></path>
<path d="M392.187 310.929C392.187 308.205 390.56 288.381 390.56 288.381C390.56 288.381 394.484 292.399 394.873 297.222C395.263 302.045 396.042 311.867 396.042 312.576C396.042 313.284 393.472 319.564 392.187 322.615C392.187 322.615 385.505 333.856 388.365 340.331C390.277 344.659 393.544 345.622 397.223 348.598C403.466 353.649 408.526 354.321 414.643 359.523C418.177 362.528 423.021 367.943 423.021 367.943C422.113 372.029 418.821 374.186 418.821 374.186C418.821 374.186 415.492 365.408 412.163 362.382C408.833 359.355 399.11 355.723 394.873 353.605C390.636 351.486 386.318 347.816 383.561 341.801C380.804 335.785 383.221 327.084 387.042 321.522C390.863 315.961 392.187 313.653 392.187 310.929Z" fill="white" fill-opacity="0.1"></path>
<path d="M423.816 250.775C422.605 247.295 413.463 242.303 413.463 242.303C413.463 242.303 412.769 246.306 408.985 249.03C405.202 251.754 406.559 258.01 405.195 261.79C402.852 268.286 396.042 268.241 394.566 270.058C392.584 272.497 394.575 276.149 391.318 277.734C387.806 279.444 363.102 282.459 365.015 271.288C366.501 262.605 377.078 268.043 384.775 253.44C388.157 247.023 396.892 239.652 402.488 234.929L402.63 234.81C408.261 230.058 413.313 229.252 420.033 232.275C425.142 234.573 431.307 243.428 431.307 249.03C431.307 257.921 433.333 254.39 431.307 263.001C430.126 268.02 428.692 272.52 428.226 275.749C427.827 278.513 435.132 284.036 429.339 286.586C423.547 289.135 414.349 281.213 415.039 276.553C415.825 271.239 419.147 267.945 420.033 265.629C420.918 263.312 425.027 254.256 423.816 250.775Z" fill="black"></path>
<path d="M408.985 231.075C408.985 231.075 411.691 238.464 413.463 242.303M413.463 242.303C413.463 242.303 422.605 247.295 423.816 250.775C425.027 254.256 420.918 263.312 420.033 265.629C419.147 267.945 415.825 271.239 415.039 276.553C414.349 281.213 423.547 289.135 429.339 286.586C435.132 284.036 427.827 278.513 428.226 275.749C428.692 272.52 430.126 268.02 431.307 263.001C433.333 254.39 431.307 257.921 431.307 249.03C431.307 243.428 425.142 234.573 420.033 232.275C413.313 229.252 408.261 230.058 402.63 234.81C397.04 239.527 388.186 246.969 384.775 253.44C377.078 268.043 366.501 262.605 365.015 271.288C363.102 282.459 387.806 279.444 391.318 277.734C394.575 276.149 392.584 272.497 394.566 270.058C396.042 268.241 402.852 268.286 405.195 261.79C406.559 258.01 405.202 251.754 408.985 249.03C412.769 246.306 413.463 242.303 413.463 242.303Z" stroke="black" stroke-width="0.0756639"></path>
<path d="M448.482 353.606C446.818 354.23 448.028 352.736 439.894 355.157C438.076 355.698 438.354 355.542 436.641 356.401C436.641 356.401 432.743 351.331 427.599 347.548C422.454 343.765 420.032 341.802 416.4 337.56C412.769 333.318 412.314 331.053 412.314 327.118C412.314 323.184 413.193 314.537 415.189 311.649C417.186 308.762 419.01 307 420.902 304.494C422.793 301.989 424.571 298.219 424.571 298.219C424.571 301.378 422.784 303.234 420.902 307C420.26 308.285 419.607 309.792 419.01 311.649C416.664 318.951 418.897 324.929 420.902 328.75C422.907 332.571 430.019 335.446 433.046 339.078C436.073 342.71 450.147 352.981 448.482 353.606Z" fill="black" fill-opacity="0.2"></path>
<path d="M414.984 285.09C414.293 285.585 413.563 285.802 412.961 286.397C412.358 286.992 410.316 291.625 409.756 292.295C409.195 292.966 404.728 295.091 401.952 296.913C400.179 298.077 398.048 299.356 396.351 300.375C395.286 301.014 395.876 300.566 393.863 301.893C391.85 303.22 385.23 308.851 386.285 311.455C387.184 314.347 389.774 313.838 391.216 313.126C392.659 312.414 404.176 304.204 405.863 302.541C407.38 301.046 412.475 296.736 413.11 296.24C413.745 295.744 414.801 294.961 415.552 294.855C417.019 294.648 419.658 294.268 420.368 293.819C420.805 293.575 422.721 292.018 422.943 291.723C423.166 291.429 423.223 290.824 422.71 290.725C422.39 290.664 421.728 290.992 421.276 291.247C421.787 290.931 422.55 290.426 422.675 290.159L422.676 290.153C422.736 289.839 422.804 289.491 422.4 289.202C422.192 289.053 421.658 289.24 421.187 289.458C421.677 289.175 422.209 288.813 422.259 288.558C422.328 288.196 422.255 287.747 421.749 287.574C421.243 287.402 419.429 288.299 419.429 288.299L421.638 287.206L423.535 286.433C423.535 286.433 426.185 285.567 426.213 284.849C426.241 284.13 425.506 284.143 424.986 284.27C424.465 284.398 422.96 284.906 422.96 284.906L421.04 285.601L418.039 286.636C418.039 286.636 418.428 286.013 419.145 285.89C419.862 285.766 420.4 285.614 420.79 285.243C421.181 284.872 421.615 284.013 421.221 283.707C420.826 283.402 418.535 284.056 418.535 284.056C418.535 284.056 415.674 284.596 414.984 285.09Z" fill="#F1C5AE"></path>
<path d="M444.976 269.316C445.294 268.729 445.063 267.994 444.466 267.696L439.149 265.002C438.573 264.713 437.871 264.941 437.573 265.513L430.884 278.325C430.588 278.895 430.801 279.596 431.363 279.905L436.137 282.527C436.711 282.843 437.431 282.631 437.744 282.056L444.976 269.316Z" fill="#c6e6c3"></path>
<path d="M444.976 269.316C445.294 268.729 445.063 267.994 444.466 267.696L439.149 265.002C438.573 264.713 437.871 264.941 437.573 265.513L430.884 278.325C430.588 278.895 430.801 279.596 431.363 279.905L436.137 282.527C436.711 282.843 437.431 282.631 437.744 282.056L444.976 269.316Z" fill="black" fill-opacity="0.2"></path>
<path d="M444.917 269.434C445.235 268.847 445.004 268.113 444.407 267.814L439.304 265.264C438.728 264.975 438.026 265.203 437.729 265.775L431.121 278.482C430.825 279.052 431.037 279.754 431.6 280.063L436.374 282.685C436.948 283 437.668 282.788 437.98 282.213L444.917 269.434Z" fill="#c6e6c3"></path>
<path d="M439.537 295.714C439.713 299.16 440.202 303.553 440.297 305.182C440.391 306.811 439.894 317.394 436.451 317.507C433.009 317.621 433.084 315.691 432.796 313.953C432.507 312.214 431.67 302.98 432.451 297.678C433.232 292.377 434.01 286.192 434.01 286.192C434.01 286.192 432.655 280.983 432.36 280.392C432.064 279.802 431.721 279.067 431.474 278.325C431.226 277.583 431.178 277.532 431.178 276.849C431.178 276.166 431.834 275.437 432.064 275.668C432.295 275.898 432.455 276.271 432.525 276.554C432.596 276.837 432.655 276.849 432.95 277.44C433.245 278.03 433.359 278.069 433.359 278.069C433.359 278.069 432.622 276.399 432.525 275.963C432.429 275.527 432.36 275.299 432.525 274.579C432.691 273.86 432.655 273.601 432.95 273.306C433.245 273.011 433.791 273.299 433.836 273.896C433.88 274.493 433.909 274.782 434.131 275.373C434.352 275.963 434.721 277.44 434.721 277.44C434.721 277.44 434.131 275.078 434.131 274.782C434.131 274.487 434.131 272.42 434.131 271.83L434.131 271.829C434.131 271.239 434.131 270.758 434.722 270.058C435.313 269.358 435.607 271.535 435.607 272.157C435.607 272.78 435.903 274.782 435.903 274.782L436.788 277.145L436.788 274.484L436.563 272.088C436.563 272.088 436.453 268.791 437.064 268.71C437.674 268.629 438.027 269.247 438.174 269.763C438.322 270.279 438.174 271.83 438.174 271.83L438.522 274.169L439.111 277.289C439.111 277.289 439.55 278.286 440.036 278.03C440.523 277.774 441.807 275.373 441.807 275.373C441.807 275.373 443.764 273.261 444.17 274.169C444.575 275.078 443.284 276.259 442.989 277.145C442.694 278.03 442.241 280.196 441.807 281.278C441.374 282.36 439.111 284.821 438.651 286.666C438.191 288.51 439.361 292.268 439.537 295.714Z" fill="#F1C5AE"></path>
<path d="M589.389 484.825L515.447 349.691L535.845 345.229H539.669L612.973 481.638V486.737L589.389 484.825Z" fill="#9ff098"></path>
<path d="M535.845 345.229L612.974 486.737V481.638L539.67 345.229H535.845Z" fill="black" fill-opacity="0.2"></path>
<path d="M278.325 373.912V366.263L345.236 348.877L365.653 350.328V356.064L282.787 378.374L278.325 373.912Z" fill="#c6e6c3"></path>
<path d="M284.699 372.001L365.652 350.328V356.065L282.787 378.375L278.325 373.913V366.264L284.699 372.001Z" fill="black" fill-opacity="0.2"></path>
<path d="M284.062 373.275L366.928 350.328L372.665 354.79V362.439L289.162 386.024L284.062 380.925V373.275Z" fill="#c6e6c3"></path>
<path d="M289.16 378.374L372.663 354.789V362.438L289.16 386.023L284.061 380.924V373.274L289.16 378.374Z" fill="black" fill-opacity="0.2"></path>
<path d="M553.054 349.692V340.131L514.81 341.406V349.692H553.054Z" fill="#9ff098"></path>
<path d="M553.054 349.692V340.131L514.81 341.406V349.692H553.054Z" fill="black" fill-opacity="0.25"></path>
<path d="M499.512 313.996L509.711 316.546L513.535 317.82L523.096 319.733L525.009 320.37L541.582 324.195L543.494 324.832L557.518 328.019L558.792 328.657L560.705 330.569V336.943L426.845 330.569V326.107L389.237 309.534L392.424 308.896L499.512 313.996Z" fill="#c6e6c3"></path>
<path d="M499.512 313.996L509.711 316.546L513.535 317.82L523.096 319.733L525.009 320.37L541.582 324.195L543.494 324.832L557.518 328.019L558.792 328.657L560.705 330.569V336.943L426.845 330.569V326.107L389.237 308.896H392.424L499.512 313.996Z" fill="black" fill-opacity="0.2"></path>
<path d="M399.436 312.084L392.425 308.896L499.513 313.996L509.711 316.546L399.436 312.084Z" fill="#c6e6c3"></path>
<path d="M513.536 317.82L401.349 313.358L409.635 316.546L523.097 319.733L513.536 317.82Z" fill="#c6e6c3"></path>
<path d="M525.01 320.37L413.46 317.82L419.834 320.37L541.583 324.195L525.01 320.37Z" fill="#c6e6c3"></path>
<path d="M428.758 324.195L423.021 321.645L543.495 324.832L557.518 328.019L428.758 324.195Z" fill="#c6e6c3"></path>
<path d="M426.846 326.107L428.758 324.832L558.793 328.657L560.705 330.569L426.846 326.107Z" fill="#c6e6c3"></path>
<path d="M390.513 308.26L428.121 324.195V326.745H415.373L380.314 311.447L380.952 308.897L390.513 308.26Z" fill="#c6e6c3"></path>
<path d="M415.373 324.195H428.121V326.744H415.373L380.314 311.446L380.952 308.896L415.373 324.195Z" fill="black" fill-opacity="0.3"></path>
<path d="M378.401 308.896L413.46 324.195V326.744L393.062 329.932L359.916 313.996V310.809L378.401 308.896Z" fill="#c6e6c3"></path>
<path d="M393.062 326.742L413.46 324.193V326.742L393.062 329.929L359.916 313.994V310.807L393.062 326.742Z" fill="black" fill-opacity="0.2"></path>
<path d="M358.004 311.445L391.15 327.381L390.512 331.206L368.84 334.393L338.881 318.457V313.995L358.004 311.445Z" fill="#c6e6c3"></path>
<path d="M369.478 330.569L391.15 327.382L390.513 331.207L368.84 334.394L338.881 318.458V313.996L369.478 330.569Z" fill="black" fill-opacity="0.25"></path>
<path d="M315.933 316.546L337.606 313.996L366.29 329.932V333.756L342.068 336.943L315.933 320.37V316.546Z" fill="#c6e6c3"></path>
<path d="M342.068 333.118L366.29 329.931V333.755L342.068 336.943L315.933 320.369V316.545L342.068 333.118Z" fill="black" fill-opacity="0.2"></path>
<path d="M314.021 316.545L339.518 333.755V341.405L313.383 344.592L289.799 324.831L290.436 318.457L314.021 316.545Z" fill="#c6e6c3"></path>
<path d="M313.383 336.942L290.436 318.457L289.799 324.831L313.383 344.592L339.518 341.404V333.755L313.383 336.942Z" fill="black" fill-opacity="0.2"></path>
<path d="M315.295 336.944L417.283 324.195L426.207 325.47V331.207L322.306 347.78L315.295 345.23V336.944Z" fill="#c6e6c3"></path>
<path d="M323.581 339.494L426.207 325.471V331.208L322.306 347.781L315.294 345.231V336.944L323.581 339.494Z" fill="black" fill-opacity="0.5"></path>
<path d="M259.839 537.095C257.926 537.732 250.914 540.283 247.09 536.458C243.266 532.634 247.257 530.638 248.364 530.084L248.365 530.083C249.472 529.53 278.961 518.61 282.786 517.972C286.611 517.335 288.523 516.273 291.073 517.972C293.623 519.671 292.347 523.072 290.435 524.347C288.523 525.621 261.751 536.458 259.839 537.095Z" fill="black" fill-opacity="0.2"></path>
<path d="M259.838 535.822C257.926 536.46 250.914 539.01 247.09 535.185C243.266 531.361 249.64 529.448 249.64 529.448C249.64 529.448 278.961 517.337 282.786 516.7C286.61 516.062 287.885 515.639 290.435 517.338C292.985 519.037 292.347 521.799 290.435 523.074C288.523 524.349 261.751 535.185 259.838 535.822Z" fill="#9ff098"></path>
<path d="M259.838 537.096C257.926 537.733 250.914 540.283 247.09 536.459C243.266 532.635 249.64 530.722 249.64 530.722C249.64 530.722 278.961 518.611 282.786 517.973C286.61 517.336 287.885 516.912 290.435 518.611C292.985 520.31 292.347 523.073 290.435 524.347C288.523 525.622 261.751 536.458 259.838 537.096Z" fill="#9ff098"></path>
<path d="M259.839 537.095C257.926 537.732 250.914 540.283 247.09 536.458C243.266 532.634 247.257 530.638 248.364 530.084L248.365 530.083C249.472 529.53 278.961 518.61 282.786 517.972C286.611 517.335 288.523 516.273 291.073 517.972C293.623 519.671 292.347 523.072 290.435 524.347C288.523 525.621 261.751 536.458 259.839 537.095Z" fill="#9ff098"></path>
<path d="M347.167 347.143L365.014 349.055L287.886 523.71L266.213 532.634L258.564 526.897L338.88 347.143H347.167Z" fill="#9ff098"></path>
<path d="M365.137 348.621L347.289 346.709L266.336 532.2L288.008 523.276L365.137 348.621Z" fill="black" fill-opacity="0.2"></path>
<path d="M327.407 340.129L425.57 326.105L454.892 327.38V333.755L362.465 350.328L326.769 348.415L327.407 340.129Z" fill="#c6e6c3"></path>
<path d="M362.465 342.042L454.892 327.381V333.755L362.465 350.328L326.769 348.416L327.406 340.129L362.465 342.042Z" fill="black" fill-opacity="0.4"></path>
<path d="M365.651 342.042L461.903 327.381L490.587 328.656V335.03L401.985 352.241L365.651 349.691V342.042Z" fill="#c6e6c3"></path>
<path d="M400.71 343.954L490.587 328.656V335.031L401.985 352.241L365.651 349.691V342.042L400.71 343.954Z" fill="black" fill-opacity="0.35"></path>
<path d="M406.447 343.954L493.137 328.656L524.371 329.294V335.031L443.418 354.153L406.447 351.604V343.954Z" fill="#c6e6c3"></path>
<path d="M441.505 346.505L524.371 329.295V335.032L443.418 354.155L406.447 351.605V343.956L441.505 346.505Z" fill="black" fill-opacity="0.3"></path>
<path d="M526.283 329.932L560.067 331.206V337.581L482.938 356.704L445.968 354.154V346.505L526.283 329.932Z" fill="#c6e6c3"></path>
<path d="M482.937 348.416L445.966 346.503V354.152L482.937 356.702L560.065 337.579V331.205L482.937 348.416Z" fill="black" fill-opacity="0.2"></path>
<path d="M588.115 373.914L670.343 400.685V405.147L637.196 403.873L562.617 377.738V372.639L588.115 373.914Z" fill="#c6e6c3"></path>
<path d="M637.196 398.773L562.617 372.639V377.738L637.196 403.873L670.343 405.147V400.685L637.196 398.773Z" fill="black" fill-opacity="0.2"></path>
<path d="M556.242 380.288L552.417 372.639H558.792L634.646 398.773V403.873C621.685 402.598 595.38 400.048 593.85 400.048L560.704 387.937L556.242 380.288Z" fill="#c6e6c3"></path>
<path d="M556.243 380.289L601.5 396.862L634.646 398.774V403.874C621.685 402.599 595.381 400.049 593.851 400.049L560.705 387.938L556.243 380.289Z" fill="black" fill-opacity="0.2"></path>
<path d="M427.483 414.072V396.224L431.945 393.037L662.056 408.335V428.733L660.144 430.645L427.483 414.072Z" fill="#9ff098"></path>
<path d="M660.144 410.885V430.645L662.056 428.733V408.335L431.945 393.037L427.483 396.224L660.144 410.885Z" fill="black" fill-opacity="0.2"></path>
<path d="M601.5 396.859L634.009 399.409L634.646 407.058L567.079 435.742L528.833 432.555V424.906L601.5 396.859Z" fill="#c6e6c3"></path>
<path d="M528.834 424.907L567.08 427.457L634.009 399.41L634.647 407.059L567.08 435.743L528.834 432.556V424.907Z" fill="black" fill-opacity="0.2"></path>
<path d="M570.266 435.745V428.096L637.195 400.049L671.616 401.324L672.254 407.698L609.786 438.932L570.266 435.745Z" fill="#c6e6c3"></path>
<path d="M570.266 435.745V428.096L609.149 430.646L671.617 401.324L672.254 407.698L609.786 438.932L570.266 435.745Z" fill="black" fill-opacity="0.25"></path>
<path d="M362.3 369.842L365.652 359.889H375.85L421.745 390.485L416.008 393.035L398.798 397.497L362.3 369.842Z" fill="#C4C4C4"></path>
<path d="M362.275 369.825L365.652 359.889H375.85L423.02 391.123L416.646 393.672L399.435 398.134L362.275 369.825Z" fill="#9ff098"></path>
<path d="M365.652 359.889L362.266 369.825L399.435 398.134L417.921 393.672L365.652 359.889Z" fill="black" fill-opacity="0.4"></path>
<path d="M378.4 403.235L371.389 405.147L378.4 350.328L384.137 350.966L393.061 351.603L386.049 401.771L378.4 403.235Z" fill="#9ff098"></path>
<path d="M386.05 401.772L393.061 351.604L384.137 350.967L377.778 403.38L386.05 401.772Z" fill="black" fill-opacity="0.2"></path>
<path d="M424.932 415.983L220.318 475.264L210.757 470.165V447.217L419.195 392.398L424.932 396.223V415.983Z" fill="#9ff098"></path>
<path d="M220.318 449.129V475.264L210.757 470.165V447.217L419.195 392.398L424.932 396.223L220.318 449.129Z" fill="black" fill-opacity="0.3"></path>
<path d="M234.979 386.661L262.389 382.199L277.687 420.445V428.094L243.903 436.38L243.266 428.094L234.979 386.661Z" fill="#c6e6c3"></path>
<path d="M203.108 393.035L233.067 387.299L240.716 428.731L241.354 437.018L203.108 446.579V437.655V393.035Z" fill="#c6e6c3"></path>
<path d="M411.545 389.851C411.545 389.851 410.908 387.939 412.82 386.983C414.095 386.345 416.645 387.302 416.645 387.302C416.645 387.302 420.894 390 425.568 391.126C429.711 392.124 436.404 393.038 436.404 393.038C436.404 393.038 439.591 393.038 439.591 394.95C439.591 396.862 436.404 396.863 436.404 396.863C436.404 396.863 430.526 395.065 425.568 395.588C420.705 396.101 414.095 398.775 414.095 398.775C414.095 398.775 412.055 399.412 410.908 397.5C409.761 395.588 411.545 394.313 411.545 394.313L416.645 393.038L411.545 389.851Z" fill="#9ff098"></path>
<path d="M411.545 389.851C411.545 389.851 410.908 387.939 412.82 386.983C414.095 386.345 416.645 387.302 416.645 387.302C416.645 387.302 420.894 390 425.568 391.126C429.711 392.124 436.404 393.038 436.404 393.038C436.404 393.038 439.591 393.038 439.591 394.95C439.591 396.862 436.404 396.863 436.404 396.863C436.404 396.863 430.526 395.065 425.568 395.588C420.705 396.101 414.095 398.775 414.095 398.775C414.095 398.775 412.055 399.412 410.908 397.5C409.761 395.588 411.545 394.313 411.545 394.313L416.645 393.038L411.545 389.851Z" fill="black" fill-opacity="0.6"></path>
<path d="M243.266 428.094L277.687 420.445V428.094L243.903 436.381L243.266 428.094Z" fill="black" fill-opacity="0.3"></path>
<path d="M203.108 437.656L240.716 428.732L241.354 437.018L203.108 446.58V437.656Z" fill="black" fill-opacity="0.3"></path>
<path d="M245.178 461.241V451.68V444.668L407.722 459.329L411.547 455.504V475.264L407.722 477.814L245.178 461.241Z" fill="#9ff098"></path>
<path d="M407.722 459.33V477.815L411.546 475.266V455.506L407.722 459.33Z" fill="black" fill-opacity="0.2"></path>
<path d="M243.903 428.733L278.962 421.084L445.33 437.657V445.944L417.283 455.505V446.581L243.903 428.733Z" fill="#c6e6c3"></path>
<path d="M243.903 428.733L278.962 421.084L445.33 437.657V445.944L417.283 455.505L243.903 435.745V428.733Z" fill="#c6e6c3"></path>
<path d="M417.283 446.58L445.33 437.656V445.943L417.283 455.504L243.903 435.744V428.732L417.283 446.58Z" fill="black" fill-opacity="0.2"></path>
<path d="M243.904 428.733L278.963 421.084L445.331 437.657V445.944L417.284 455.505V446.581L243.904 428.733Z" fill="#c6e6c3"></path>
<path d="M241.992 429.371L415.372 447.218V456.142L386.05 466.979L206.933 447.218V438.932L241.992 429.371Z" fill="#c6e6c3"></path>
<path d="M417.284 446.58L445.331 437.656V445.943L417.284 455.504V446.58Z" fill="black" fill-opacity="0.2"></path>
<path d="M386.05 457.416L415.372 447.218V456.142L386.05 466.978L206.933 447.218V438.931L386.05 457.416Z" fill="black" fill-opacity="0.2"></path>
<path d="M575.411 380.688C580.227 380.896 590.993 379.844 590.993 379.844C592.756 385.178 592.5 388.691 593.857 396.286C595.213 403.881 592.448 406.562 591.551 409.577C590.059 414.596 581.49 417.995 578.667 418.529C573.648 419.478 562.12 418.991 554.118 417.172C546.116 415.354 540.787 414.236 535.401 412.697C528.755 410.798 520.617 408.628 520.075 409.577C519.532 410.527 522.516 416.087 522.516 424.768C522.516 433.448 521.16 442.806 521.16 446.061C521.16 451.486 519.126 469.029 519.126 472.78C519.126 475.628 521.499 476.713 521.16 479.426C520.821 482.139 518.99 481.867 517.634 483.63C517.031 484.414 515.243 486.371 513.836 488.513C512.079 491.189 512.48 492.853 510.31 494.616C508.14 496.38 504.207 497.646 503.393 496.922C502.174 495.837 506.473 492.582 507.733 488.513C509.496 482.817 511.53 475.547 511.53 473.594V455.284C511.53 449.588 509.631 433.041 508.682 427.616C507.747 422.272 503.393 400.626 507.733 396.286C511.205 392.814 519.126 393.844 529.298 393.844C529.298 393.844 552.219 394.251 554.118 393.844C556.017 393.437 561.171 391.539 562.256 389.911C563.34 388.284 567.408 380.481 567.408 380.481C567.408 380.481 570.596 380.481 575.411 380.688Z" fill="#F7BBBE"></path>
<path d="M503.394 496.923C504.207 497.647 508.141 496.38 510.311 494.617C512.481 492.854 512.079 491.189 513.837 488.514C515.244 486.372 517.032 484.415 517.635 483.631C518.991 481.868 520.822 482.139 521.161 479.427C521.5 476.714 519.127 475.629 519.127 472.781C519.127 469.03 521.161 451.487 521.161 446.062C521.161 442.807 522.517 433.449 522.517 424.769C522.517 417.22 520.26 412.03 520.029 410.181C520.059 409.794 520.076 409.578 520.076 409.578C520.005 409.702 519.994 409.904 520.029 410.181C519.864 412.327 519.31 419.736 519.127 424.769C518.825 433.079 519.496 437.755 519.127 446.062C518.662 456.539 517.635 464.324 517.635 472.781C517.635 475.581 520.518 476.997 519.127 479.427C518.463 480.587 517.408 480.624 516.436 481.541C514.4 483.463 513.544 484.878 512.248 487.358C511.297 489.177 511.481 490.558 510.311 492.244C508.451 494.923 503.394 496.923 503.394 496.923Z" fill="black" fill-opacity="0.05"></path>
<path d="M554.932 393.98L562.12 390.454C562.12 390.454 544.624 384.893 542.182 384.079L542.18 384.079C539.735 383.263 527.534 379.197 524.008 378.519C520.482 377.841 511.394 376.213 508.411 379.468C505.428 382.723 504.614 386.114 502.986 390.454C501.359 394.794 498.237 403.476 495.256 412.155C491.924 421.851 488.368 431.067 487.795 432.499C486.71 435.211 482.37 443.892 481.692 444.841C481.014 445.79 477.623 447.689 476.403 448.232C475.182 448.774 470.299 452.301 468.943 452.301C467.587 452.301 466.774 452.165 465.689 452.707C464.947 453.078 464.604 454.335 464.875 455.013C465.146 455.691 466.774 456.641 468.943 456.641C471.113 456.641 474.369 457.048 477.353 454.199C480.336 451.351 486.349 453.521 487.795 451.894C489.242 450.266 489.017 445.79 489.017 445.79C489.017 445.79 495.256 436.025 496.205 434.262C497.154 432.499 504.478 422.191 508.411 415.274C512.344 408.357 516.956 395.44 518.176 394.794C519.397 394.148 554.932 393.98 554.932 393.98Z" fill="#DFA9AC"></path>
<path d="M518.177 394.794C519.397 394.148 551.473 393.867 551.473 393.867C551.473 393.867 517.731 390.699 516.435 391.964C515.14 393.229 513.865 397.055 513.865 397.055C513.865 397.055 509.871 407.604 505.965 415.274C502.371 422.332 499.389 425.741 495.256 432.498C492.318 437.303 489.589 439.502 487.796 444.841C487.06 447.031 487.987 448.896 486.421 450.596C484.483 452.702 481.947 451.061 479.209 451.893C476.951 452.579 475.898 453.57 473.625 454.199C470.317 455.114 464.875 455.013 464.875 455.013C465.147 455.691 466.774 456.64 468.944 456.64C471.113 456.64 474.369 457.047 477.353 454.199C480.337 451.351 486.349 453.521 487.796 451.893C489.243 450.266 489.017 445.79 489.017 445.79C489.017 445.79 495.256 436.025 496.205 434.262C497.155 432.498 504.478 422.191 508.412 415.274C512.345 408.357 516.956 395.44 518.177 394.794Z" fill="black" fill-opacity="0.05"></path>
<path d="M567.409 378.568C567.409 374.743 568.343 367.612 566.771 361.995C564.783 354.888 559.76 351.836 559.76 346.697C559.76 339.685 563.675 336.498 568.046 331.399C572.417 326.299 575.058 325.662 576.97 324.387C582.019 322.644 587.806 322.475 587.806 322.475C587.806 322.475 592.849 326.327 594.152 332.369C595.455 338.41 594.497 340.031 594.152 344.921C593.689 351.492 591.971 354.999 591.379 361.56C590.673 369.394 590.402 373.897 591.379 381.702C592.449 390.249 594.152 391.266 594.152 404.151C594.152 412.289 588.355 417.759 582.476 418.774C565.837 421.647 553.983 417.307 546.252 415.137L544.353 394.114C554.525 394.114 558.577 392.262 561.458 390.181C564.34 388.1 567.409 382.392 567.409 378.568Z" fill="#F7BBBE"></path>
<path d="M590.355 325.023C590.355 325.023 586.531 326.298 583.344 326.936C580.156 327.573 573.782 326.298 573.782 326.298C573.782 326.298 569.957 328.848 566.133 333.31C562.308 337.772 560.484 339.047 559.759 341.597C557.733 348.715 564.678 352.188 566.133 359.444C567.068 364.107 567.662 366.807 567.408 371.556C567.033 378.556 564.858 386.216 562.308 388.766C559.759 391.316 545.768 383.434 534.899 381.117C525.533 379.12 514.71 376.051 510.677 377.292C502.39 379.842 507.49 393.866 507.49 393.866C507.49 393.866 520.238 408.526 515.139 413.626C510.04 418.725 528.453 434.498 529.8 434.661C531.146 434.824 527.887 423.867 530.437 423.187C539.999 420.637 543.186 421.275 559.121 421.275C568.872 421.275 571.39 423.101 581.431 421.275C588.443 420 597.367 415.538 595.455 400.877C593.542 386.216 591.147 381.351 590.993 372.83C590.755 359.771 596.874 344.815 594.18 332.035C592.797 325.477 590.355 325.023 590.355 325.023Z" fill="#85d087"></path>
<path d="M581.431 421.278C588.443 420.003 597.367 415.541 595.454 400.88C595.454 400.88 596 409.604 592.905 413.628C589.851 417.6 586.364 418.492 581.431 419.365C574.356 420.618 570.393 417.192 563.583 414.903C550.285 410.434 545.74 398.29 531.712 398.33C524.494 398.351 513.776 402.792 513.776 402.792C516.033 406.851 517.501 411.266 515.139 413.628C510.039 418.728 527.887 434.636 529.799 434.664C531.712 434.691 527.887 423.87 530.437 423.19C539.998 420.64 543.185 421.278 559.121 421.278C568.872 421.278 571.389 423.103 581.431 421.278Z" fill="black" fill-opacity="0.05"></path>
<path d="M522.93 343.671C524.817 346.657 530.071 353.311 538.073 364.975C538.073 364.975 542.549 372.832 546.374 372.832C550.198 372.832 557.847 365.183 560.397 361.996C562.947 358.809 577.608 342.873 577.608 342.873C577.608 342.873 584.619 334.587 579.52 330.125C574.421 325.663 569.321 330.762 569.321 330.762C569.321 330.762 548.286 360.084 547.649 360.084C547.011 360.084 541.965 353.354 539.999 351.16C538.034 348.965 528.522 339.127 527.447 338.218C526.373 337.309 524.81 336.553 523.151 333.865C523.151 333.865 522.487 329.806 520.791 327.813L520.347 326.844L519.805 324.267C519.805 324.267 519.669 322.233 519.669 321.826C519.669 321.419 519.262 320.605 518.72 320.47C518.177 320.334 518.177 321.283 518.177 322.097C518.177 322.911 518.313 324.132 518.313 324.403C518.313 324.674 518.72 327.116 518.72 327.116L518.584 327.429L518.313 327.116L518.042 324.403V322.233V319.656C518.042 319.113 517.425 318.842 516.957 319.113C516.488 319.385 516.55 320.877 516.55 320.877L516.414 322.233V324.267V327.116L516.55 328.065L516.414 327.658L516.279 327.116C516.279 327.116 516.143 324.539 516.143 324.267V322.233C516.143 321.826 516.279 320.294 516.279 319.385C516.279 318.475 515.872 318.164 515.465 318.164C515.058 318.164 514.651 318.842 514.651 319.385C514.651 319.927 514.515 322.233 514.515 322.233V324.267L514.651 327.116V329.014C514.651 329.014 514.729 329.613 514.38 327.116C514.242 326.129 514.108 326.021 514.108 324.873V322.233C514.108 320.741 513.49 320.47 513.023 320.47C512.557 320.47 512.513 324.493 512.486 324.873C512.46 325.253 512.492 327.245 512.486 327.658C512.481 328.071 512.569 331.542 512.676 332.277C512.784 333.011 518.613 337.882 519.617 339.119C520.62 340.355 521.043 340.685 522.93 343.671Z" fill="#F7BBBE"></path>
<path d="M522.929 343.669C524.816 346.655 530.07 353.308 538.072 364.972L538.785 363.343C538.785 363.343 528.686 347.082 520.346 338.216C518.093 335.821 515.972 335.152 514.379 332.275C512.933 329.664 512.485 324.871 512.485 324.871C512.459 325.252 512.491 327.243 512.485 327.656C512.48 328.069 512.568 331.54 512.675 332.275C512.783 333.009 518.612 337.88 519.615 339.116C520.619 340.352 521.042 340.683 522.929 343.669Z" fill="black" fill-opacity="0.05"></path>
<path d="M527.447 338.216C528.521 339.125 543.132 353.425 543.132 353.425L542.461 354.968L524.578 337.053L522.251 333.863L520.79 330.771L518.719 327.114C518.719 327.114 518.312 324.673 518.312 324.401C518.312 324.13 518.177 322.909 518.177 322.096C518.177 321.282 518.177 320.332 518.719 320.468C519.262 320.604 519.669 321.418 519.669 321.824C519.669 322.231 519.804 324.266 519.804 324.266L520.347 326.843L520.79 327.811C522.486 329.804 523.15 333.863 523.15 333.863C524.809 336.551 526.372 337.307 527.447 338.216Z" fill="black" fill-opacity="0.05"></path>
<path d="M557.847 365.184C557.209 365.184 548.923 360.085 549.561 357.535C550.198 354.986 555.568 348.775 559.122 344.15C563.371 338.619 565.496 332.676 569.32 329.489C573.145 326.303 576.46 326.29 579.519 328.852C582.251 331.14 582.069 334.588 581.431 337.776C580.211 343.878 574.54 347.623 570.595 352.436C565.904 358.16 558.484 365.184 557.847 365.184Z" fill="#85d087"></path>
<path d="M557.847 365.184C557.209 365.184 548.923 360.085 549.561 357.535C550.198 354.986 555.568 348.775 559.122 344.15C563.371 338.619 565.496 332.676 569.32 329.489C573.145 326.303 576.46 326.29 579.519 328.852C582.251 331.14 582.069 334.588 581.431 337.776C580.211 343.878 574.54 347.623 570.595 352.436C565.904 358.16 558.484 365.184 557.847 365.184Z" fill="black" fill-opacity="0.2"></path>
<path d="M515.058 330.42L505.463 308.086C505.095 307.227 505.543 306.238 506.432 305.95L513.644 303.613C514.416 303.362 515.253 303.736 515.583 304.478L525.353 326.478C525.726 327.319 525.308 328.301 524.442 328.614L517.056 331.286C516.266 331.572 515.39 331.192 515.058 330.42Z" fill="#9ff098"></path>
<path d="M515.877 330.063L506.081 307.642C505.829 307.067 506.131 306.401 506.729 306.21L514.06 303.878C514.575 303.714 515.131 303.965 515.349 304.459L525.085 326.575C525.331 327.135 525.053 327.786 524.478 327.995L517.208 330.634C516.683 330.825 516.101 330.575 515.877 330.063Z" fill="#85d087"></path>
<path d="M516.252 329.713L506.545 307.511C506.351 307.081 506.575 306.578 507.023 306.432L508.329 306.008L513 304.492L514.206 304.1C514.596 303.974 515.018 304.164 515.18 304.54L524.883 326.539C525.066 326.963 524.85 327.453 524.414 327.603L517.235 330.138C516.847 330.273 516.42 330.088 516.252 329.713Z" fill="#c6e6c3"></path>
<path d="M508.567 306.312L508.331 306.008L513.002 304.492L513.053 304.71C513.122 305.009 513.306 305.27 512.893 305.491C512.854 305.512 512.814 305.527 512.772 305.541C512.331 305.688 509.652 306.582 509.297 306.664C508.911 306.753 508.773 306.577 508.567 306.312Z" fill="black" fill-opacity="0.5"></path>
<ellipse cx="520.156" cy="326.931" rx="1.20659" ry="1.0055" fill="#612F82"></ellipse>
<path fill-rule="evenodd" clip-rule="evenodd" d="M515.12 308.372C515.151 308.479 515.089 308.591 514.982 308.621L509.351 310.23C509.245 310.26 509.133 310.199 509.103 310.092C509.072 309.985 509.134 309.874 509.241 309.843L514.872 308.234C514.978 308.204 515.09 308.266 515.12 308.372Z" fill="#9ff098"></path>
<path fill-rule="evenodd" clip-rule="evenodd" d="M515.724 309.578C515.755 309.684 515.693 309.796 515.586 309.826L509.955 311.435C509.849 311.465 509.737 311.404 509.707 311.297C509.676 311.19 509.738 311.079 509.845 311.048L515.476 309.439C515.582 309.409 515.694 309.471 515.724 309.578Z" fill="#9ff098"></path>
<path fill-rule="evenodd" clip-rule="evenodd" d="M516.126 310.785C516.156 310.891 516.095 311.003 515.988 311.033L510.357 312.642C510.25 312.672 510.139 312.611 510.108 312.504C510.078 312.397 510.14 312.286 510.246 312.255L515.877 310.646C515.984 310.616 516.095 310.678 516.126 310.785Z" fill="#9ff098"></path>
<path d="M512.833 318.012L511.848 315.673C511.665 315.238 511.894 314.739 512.343 314.595L516.467 313.269C516.851 313.146 517.267 313.326 517.44 313.691L518.551 316.036C518.761 316.479 518.53 317.004 518.063 317.149L513.813 318.468C513.418 318.591 512.994 318.393 512.833 318.012Z" fill="#9ff098"></path>
<circle cx="515.328" cy="315.869" r="1.20659" fill="#C4C4C4"></circle>
<path d="M515.085 316.65L514.546 315.756C514.479 315.622 514.577 315.465 514.726 315.465L515.84 315.443C516.001 315.443 516.097 315.622 516.008 315.756L515.433 316.672C515.347 316.8 515.154 316.788 515.085 316.65Z" fill="#c6e6c3"></path>
<path d="M508.34 485.745C508.579 485.027 510.015 487.135 511.055 486.288C513.161 484.573 514.401 481.985 515.4 479.771C516.359 477.645 519.202 473.254 519.202 473.254C519.202 473.254 520.912 474.88 521.373 476.513C521.53 477.068 521.558 479.111 521.686 479.878C521.728 480.128 521.786 480.325 521.87 480.429L522.899 481.692L519.53 484.435L518.501 483.172C518.501 483.172 517.659 483.858 516.318 485.651C514.976 487.444 515.568 490.036 514.086 492.371C513.165 493.82 511.481 495.192 509.375 496.907C507.691 498.278 504.75 499.498 503.528 497.466C502.76 496.189 503.387 495.302 504.246 494.09L504.261 494.068C505.007 493.015 505.316 492.452 506.167 491.176C507.253 489.547 507.797 487.374 508.34 485.745Z" fill="#9ff098"></path>
<path d="M519.202 473.25C519.202 473.25 520.913 474.876 521.374 476.509C521.531 477.064 521.558 479.107 521.687 479.874C521.729 480.124 521.786 480.321 521.871 480.425L522.899 481.688L519.53 484.431L518.502 483.168C518.502 483.168 517.66 483.854 516.318 485.647C514.977 487.44 515.569 490.032 514.086 492.367C513.166 493.816 511.481 495.188 509.376 496.903C507.691 498.275 504.751 499.494 503.529 497.463C503.256 497.009 503.159 496.605 503.186 496.218C503.186 496.218 504.415 497.339 505.399 497.463C506.946 497.657 507.641 496.456 508.882 495.514C510.677 494.151 511.529 493.107 512.683 491.172C514.058 488.867 513.401 486.908 514.856 484.652C515.971 482.924 517.369 482.568 518.502 480.851C519.405 479.482 520.173 478.685 520.286 477.049C520.393 475.51 519.202 473.25 519.202 473.25Z" fill="black" fill-opacity="0.1"></path>
<path d="M522.898 481.687L521.87 480.424C521.785 480.321 521.728 480.123 521.686 479.873C521.686 479.873 519.422 481.498 518.158 482.746C517.24 483.653 516.697 484.157 515.974 485.225C514.423 487.514 515.24 489.62 513.742 491.945C512.359 494.092 510.376 495.553 509.032 496.481C507.687 497.409 506.429 498.112 505.398 498.039C504.635 497.985 503.527 497.462 503.527 497.462C504.75 499.494 507.69 498.274 509.375 496.902C511.48 495.187 513.165 493.816 514.085 492.366C515.568 490.032 514.975 487.439 516.317 485.646C517.658 483.853 518.501 483.167 518.501 483.167L519.529 484.431L522.898 481.687Z" fill="black" fill-opacity="0.2"></path>
<path d="M519.088 328.058C520.784 330.051 521.448 334.11 521.448 334.11L515.316 331.366C515.316 331.366 515.767 329.312 515.557 327.674C515.274 325.469 514.574 322.947 515.931 322.373C517.288 321.8 517.471 325.498 517.471 325.498C517.471 325.498 517.392 326.065 519.088 328.058Z" fill="#F7BBBE"></path>
<path d="M515.932 322.372C515.649 322.491 515.456 322.696 515.329 322.964C515.329 322.964 515.329 323.91 515.558 324.211C515.787 324.513 516.134 324.513 516.335 324.513C516.536 324.513 516.888 324.513 516.938 324.111C516.988 323.708 516.737 322.607 516.737 322.607C516.53 322.349 516.267 322.23 515.932 322.372Z" fill="#C2666B"></path>
<path d="M572.508 316.738C557.97 305.109 566.766 291.371 566.766 291.371C589.653 274.019 589.799 300.08 586.473 313.675L587.806 322.475L576.97 324.387L575.058 317.401C574.014 317.417 573.121 317.228 572.508 316.738Z" fill="#F7BBBE"></path>
<path d="M572.508 316.738C557.97 305.109 566.766 291.371 566.766 291.371C589.653 274.019 589.799 300.08 586.473 313.675L587.806 322.475L576.332 325.662C576.332 325.662 576.97 323.112 576.332 321.2C575.695 319.288 575.058 317.401 575.058 317.401C574.014 317.417 573.121 317.228 572.508 316.738Z" fill="#F7BBBE"></path>
<path d="M568.347 302.703C564.36 299.315 562.946 294.238 562.946 294.238C562.946 283 566.18 282.21 571.917 284.76C571.917 284.76 580.667 281.165 586.578 284.122C592.952 287.31 591.846 293.977 594.864 300.058C596.812 303.981 595.317 307.402 596.777 311.532C598.6 316.691 603.75 319.576 605.063 326.192C606.377 332.809 610.163 334.258 611.437 340.853C612.584 346.787 620.319 346.425 620.952 352.435C622.227 364.546 608.841 365.183 599.28 361.359C599.28 361.359 583.935 351.16 585.256 345.423C586.578 339.686 581.153 333.502 579.566 325.555C578.64 320.916 568.776 320.341 570.642 315.994C572.107 312.579 572.65 310.524 571.28 307.07C570.264 304.511 570.444 304.486 568.347 302.703Z" fill="#281C11"></path>
<path d="M582.795 310.296C585.28 306.42 575.935 302.998 576.665 299.057C577.395 295.116 578.808 306.478 582.795 296.868C586.782 287.258 585.046 301.923 587.173 305.187C589.013 308.009 589.253 306.867 590.676 308.544C593.819 312.247 592.694 326.558 592.136 324.745C589.217 315.258 589.935 314.867 587.173 314.09C586.241 313.828 586.805 315.047 585.86 315.258C581.554 316.22 590.676 336.984 587.173 334.816C584.108 332.918 576.152 318.994 580.605 314.09C582.655 311.833 581.149 312.862 582.795 310.296Z" fill="white" fill-opacity="0.06"></path>
<path d="M600.893 343.864C600.719 340.732 597.536 336.566 597.536 336.566C597.536 336.566 598.723 340.655 598.411 343.864C598.016 347.931 594.617 354.373 594.617 354.373C594.617 354.373 601.157 348.637 600.893 343.864Z" fill="white" fill-opacity="0.14"></path>
<path d="M474.123 449.352C474.876 449.276 474.411 450.982 475.753 450.981C478.468 450.981 481.183 449.352 483.356 448.266C485.442 447.223 489.329 445.551 489.329 445.551C489.329 445.551 490.546 448.338 489.872 449.895C489.644 450.425 488.833 451.391 488.449 452.068C488.323 452.288 488.243 452.478 488.243 452.611L488.243 454.24H483.899V452.611C483.899 452.611 482.813 452.611 480.64 453.154C478.468 453.697 477.29 456.081 474.667 456.956C473.037 457.498 470.865 457.498 468.15 457.498C465.977 457.498 462.927 456.587 463.262 454.24C463.473 452.765 464.519 452.473 465.951 452.075L465.977 452.068C467.22 451.722 468.149 451.525 469.778 450.982C471.408 450.439 472.601 449.507 474.123 449.352Z" fill="#9ff098"></path>
<path d="M489.329 445.551C489.329 445.551 490.546 448.338 489.872 449.895C489.644 450.425 488.833 451.391 488.449 452.068C488.323 452.288 488.243 452.478 488.243 452.611L488.243 454.24H483.899V452.611C483.899 452.611 482.813 452.611 480.64 453.154C478.468 453.697 477.29 456.081 474.667 456.956C473.037 457.498 470.865 457.498 468.15 457.498C465.977 457.498 462.927 456.587 463.262 454.24C463.366 453.515 463.671 453.075 464.126 452.769C464.126 452.769 464.361 454.129 464.891 454.783C465.864 455.982 467.16 455.684 468.693 455.869C470.809 456.124 472.11 456.026 474.123 455.326C476.29 454.573 476.922 453.016 479.011 452.068C481.776 450.813 484.985 450.438 486.614 450.438C488.243 450.438 488.814 449.523 489.329 448.266C489.732 447.285 489.329 445.551 489.329 445.551Z" fill="black" fill-opacity="0.1"></path>
<path d="M488.243 454.238L488.243 452.609C488.243 452.476 488.323 452.286 488.449 452.066C488.449 452.066 485.667 451.896 483.899 452.066C482.615 452.189 481.876 452.238 480.64 452.609C477.992 453.405 477.296 455.553 474.667 456.41C472.238 457.202 469.778 457.083 468.15 456.953C466.521 456.824 465.101 456.574 464.348 455.867C463.791 455.344 463.262 454.238 463.262 454.238C462.927 456.586 465.977 457.496 468.15 457.496C470.865 457.496 473.037 457.496 474.667 456.954C477.29 456.08 478.468 453.695 480.64 453.152C482.813 452.609 483.899 452.609 483.899 452.609V454.238H488.243Z" fill="black" fill-opacity="0.2"></path>
<path d="M182.271 507.107C182.806 505.5 182.973 505.62 183.993 503.949C185.113 502.114 187.078 500.5 187.078 500.5L179.222 496.215C179.222 496.215 175.955 501.386 175.381 501.94C174.807 502.493 172.973 502.821 170.83 502.821H163.867C159.962 502.821 155.859 499.93 154.424 501.94C153.275 503.548 153.381 506.262 155.859 508.829C157.989 511.035 161.256 511.413 162.749 511.413C166.768 511.413 165.851 510.435 169.065 511.035C171.608 511.509 171.723 513.356 171.723 513.356L172.08 515.141L178.356 516.023C178.356 516.023 178.93 514.588 179.222 514.014C179.514 513.439 181.404 512.059 181.696 510.552C182.024 508.861 181.726 508.741 182.271 507.107Z" fill="#85d087"></path>
<path d="M182.271 507.107C182.806 505.5 182.973 505.619 183.993 503.949C183.993 503.949 181.919 505.52 180.94 506.837C179.856 508.295 180.653 509.778 178.93 511.034C177.208 512.291 174.624 510.856 172.328 509.994C170.031 509.133 169.582 508.941 167.734 508.829C165.581 508.699 164.42 509.978 162.28 509.707C160.089 509.43 158.725 508.92 157.113 507.411C155.375 505.784 154.424 501.939 154.424 501.939C153.274 503.548 153.381 506.262 155.859 508.829C157.989 511.034 161.256 511.413 162.749 511.413C166.768 511.413 165.851 510.435 169.065 511.034C171.608 511.509 171.723 513.356 171.723 513.356L172.08 515.141L178.356 516.023C178.356 516.023 178.93 514.588 179.222 514.013C179.514 513.439 181.404 512.059 181.696 510.552C182.024 508.861 181.726 508.741 182.271 507.107Z" fill="black" fill-opacity="0.1"></path>
<path d="M178.356 516.023C178.356 516.023 178.929 514.588 179.221 514.013C179.333 513.794 179.678 513.457 180.078 513.04L171.753 511.717C171.753 511.717 171.178 510.856 169.169 510.281C167.159 509.707 164.576 510.552 162.748 510.552C160.921 510.552 158.343 510.12 156.538 508.272C155.224 506.927 154.672 505.812 154.423 503.949C154.319 503.171 154.423 501.939 154.423 501.939C153.274 503.548 153.391 506.262 155.858 508.829C158.326 511.396 161.255 511.413 162.748 511.413C166.767 511.413 165.85 510.435 169.064 511.034C171.608 511.509 171.722 513.356 171.722 513.356L172.079 515.141L178.356 516.023Z" fill="black"></path>
<path d="M241.046 502.078C239.924 500.65 239.261 499.4 239.261 499.4V498.15L229.44 500.65L231.047 505.292C231.047 505.292 229.635 507.369 228.595 508.559C226.298 511.185 226.222 512.482 222.853 515.736C221.666 516.883 220.844 516.31 218.835 517.458C216.826 518.607 216.289 519.755 216.538 520.616C216.786 521.478 216.986 522.626 220.557 522.626C223.066 522.626 228.604 522.486 230.03 520.042C231.457 517.598 233.222 514.818 234.336 513.863C236.804 511.747 237.654 513.863 237.654 513.863L238.356 514.875L243.546 511.185C243.546 511.185 242.869 508.272 243.01 507.256C243.152 506.241 242.169 503.507 241.046 502.078Z" fill="#85d087"></path>
<path d="M243.546 511.186C243.546 511.186 242.949 508.56 242.949 507.699C242.949 507.699 235.198 512.005 233.762 513.441C232.327 514.876 230.317 518.321 228.882 520.044C227.533 521.662 226.099 521.585 224.002 521.783C221.131 522.053 217.112 521.783 217.112 521.783C217.593 522.259 218.534 522.627 220.557 522.627C223.066 522.627 228.604 522.487 230.03 520.044C231.457 517.6 233.222 514.82 234.336 513.864C236.804 511.749 237.654 513.864 237.654 513.864L238.355 514.876L243.546 511.186Z" fill="black" fill-opacity="0.98"></path>
<path d="M241.046 502.078C239.924 500.65 239.261 499.4 239.261 499.4V498.15L236.92 498.746C236.92 498.746 241.343 502.432 240.652 505.292C240.106 507.551 237.969 507.736 236.346 509.399C234.956 510.823 234.163 511.614 232.901 513.152C231.165 515.268 231.035 517.204 228.882 518.894C227.225 520.194 226.023 520.599 224.002 521.19C221.41 521.949 217.112 521.781 217.112 521.781C217.593 522.257 218.534 522.626 220.557 522.626C223.066 522.626 228.604 522.486 230.03 520.042C231.457 517.598 233.222 514.818 234.336 513.863C236.804 511.747 237.654 513.863 237.654 513.863L238.355 514.875L243.546 511.185L243.01 509.399C243.01 509.399 242.653 508.685 243.01 507.256C243.367 505.828 242.168 503.507 241.046 502.078Z" fill="black" fill-opacity="0.1"></path>
<path d="M258.724 331.023C259.081 328.523 260.331 323.523 263.545 323.523C266.759 323.524 267.116 327.987 267.116 327.987C267.116 327.987 268.326 340.588 268.009 349.235C267.586 360.775 267.473 374.59 265.331 377.804C263.188 381.018 238.548 395.124 238.548 395.124L233.905 388.696C233.905 388.696 254.796 374.233 255.867 371.733C256.939 369.233 258.367 333.522 258.724 331.023Z" fill="#9ff098"></path>
<path d="M302.113 410.658C304.218 400.311 295.486 385.688 295.486 385.688L277.472 382.982L276.223 402.444C276.223 402.444 219.122 413.248 211.658 420.712C206.65 425.719 202.455 446.133 193.571 462.913C185.82 477.554 174.911 501.669 174.911 501.669L183.811 506.836C183.811 506.836 193.094 492.768 196.729 487.315C201.323 480.425 204.481 475.544 211.658 464.061C218.462 453.174 218.835 443.104 224.62 437.441C231.488 430.719 271.044 442.083 288.364 432.977C297.292 428.283 299.624 422.89 302.113 410.658Z" fill="#9ff098"></path>
<path d="M258.724 331.023C259.081 328.523 260.331 323.523 263.545 323.523C266.759 323.524 267.116 327.987 267.116 327.987C267.116 327.987 268.326 340.588 268.009 349.235C267.586 360.775 267.473 374.59 265.331 377.804C263.188 381.018 238.548 395.124 238.548 395.124L233.905 388.696C233.905 388.696 254.796 374.233 255.867 371.733C256.939 369.233 258.367 333.522 258.724 331.023Z" fill="black" fill-opacity="0.5"></path>
<path d="M302.113 410.658C304.218 400.311 295.486 385.688 295.486 385.688L277.472 382.982L276.223 402.444C276.223 402.444 219.122 413.248 211.658 420.712C206.65 425.719 202.455 446.133 193.571 462.913C185.82 477.554 174.911 501.669 174.911 501.669L183.811 506.836C183.811 506.836 193.094 492.768 196.729 487.315C201.323 480.425 204.481 475.544 211.658 464.061C218.462 453.174 218.835 443.104 224.62 437.441C231.488 430.719 271.044 442.083 288.364 432.977C297.292 428.283 299.624 422.89 302.113 410.658Z" fill="black" fill-opacity="0.5"></path>
<path d="M258.724 331.023C259.081 328.523 260.331 323.523 263.545 323.523C266.759 323.524 267.116 327.987 267.116 327.987C267.116 327.987 268.326 340.588 268.009 349.235C267.586 360.775 267.474 374.59 265.331 377.804C263.188 381.018 238.548 395.124 238.548 395.124L233.905 388.696C233.905 388.696 254.796 374.233 255.867 371.733C256.939 369.233 258.367 333.522 258.724 331.023Z" fill="black" fill-opacity="0.06"></path>
<path d="M302.113 410.658C304.218 400.311 295.486 385.688 295.486 385.688C295.486 385.688 300.892 401.089 298.643 410.658C296.628 419.233 295.199 423.077 286.586 428.75C277.973 434.423 229.457 426.008 222.854 432.977C216.251 439.946 215.273 451.634 209.074 462.913C203.905 472.317 200.352 477.215 194.433 486.166C189.418 493.749 181.227 505.336 181.227 505.336L183.811 506.836C183.811 506.836 193.094 492.768 196.729 487.315C201.323 480.425 204.481 475.544 211.658 464.061C218.463 453.174 218.835 443.104 224.621 437.441C231.489 430.719 271.045 442.083 288.364 432.977C297.292 428.283 299.624 422.89 302.113 410.658Z" fill="black" fill-opacity="0.06"></path>
<path d="M233.122 387.824C236.458 386.646 238.914 384.392 238.914 384.392L242.103 390.077C242.103 390.077 240.046 391.784 237.126 394.488L234.557 398.446L231.399 400.168C230.659 399.576 230.938 399.021 231.113 398.446C231.276 397.906 232.45 397.348 232.835 396.723C233.47 395.693 233.409 395.372 233.409 395.372C233.409 395.372 233.814 395.157 232.548 395.175C231.281 395.192 231.113 395.98 231.113 395.98C230.967 396.248 230.341 397.568 230.251 397.871C230.058 398.523 229.858 399.23 229.677 399.881C229.473 400.616 229.426 401.119 229.103 401.603C228.529 402.463 228.392 402.466 227.766 402.464C227.14 402.463 227.908 400.786 228.085 399.593C228.179 398.961 228.401 398.091 228.603 397.33C228.93 396.097 229.495 394.793 229.39 395C229.286 395.207 228.946 395.219 227.954 397.01C227.662 397.539 227.19 398.302 227.093 399.02C227.024 399.53 226.661 400.51 226.429 400.742C226.025 401.146 225.371 401.029 225.084 400.742C224.797 400.455 225.322 399.466 225.658 398.446C225.782 397.672 226.106 396.932 226.429 396.293C227.147 394.872 227.766 394.14 227.766 393.925C227.766 393.711 226.698 395.406 226.124 395.98C225.853 396.251 225.387 397.763 225.371 398.159C225.319 399.408 224.218 400.169 223.648 399.881C223.079 399.593 223.908 398.959 223.935 397.871C223.948 397.372 224.556 395.818 224.782 395.372C225.222 394.637 225.935 394.003 226.429 393.278L224.51 395.175C224.276 395.638 223.945 396.212 223.74 396.651C223.527 397.109 222.741 397.418 222.5 397.296C221.985 397.036 222.852 395.876 223.381 394.714C223.642 394.141 224.048 393.512 224.384 392.991C224.717 392.475 225.2 392.044 225.493 391.753C226.443 391.044 227.093 390.077 228.085 389.542C229.39 389.259 230.912 388.604 233.122 387.824Z" fill="#E4B8BA"></path>
<path d="M262.83 309.596C259.587 304.204 257.349 301.765 259.313 296.407C260.688 292.657 267.294 289.422 270.151 289.422C273.008 289.422 280.842 291.667 283.721 297.634C285.962 302.281 282.853 309.596 282.853 309.596C282.853 309.596 284.652 320.024 285.724 321.095C286.795 322.166 296.92 323.524 296.92 323.524C296.92 323.524 287.733 333.152 276.25 332.004C268.786 331.258 262.83 323.622 262.83 323.622C262.83 323.622 271.556 323.346 272.805 321.382C274.055 319.418 274.079 317.526 274.079 317.526C273.141 317.897 272.279 318.085 271.579 317.989C267.83 317.473 265.525 314.076 262.83 309.596Z" fill="#F7BBBE"></path>
<path d="M283.721 310.848C283.721 310.848 278.169 315.914 274.079 317.527C274.079 317.527 273.954 319.661 272.806 321.383C271.658 323.106 264.768 323.507 264.768 323.507C264.768 323.507 266.947 324.603 269.648 324.828C271.771 325.005 273.135 325.644 275.103 324.828C277.227 323.947 277.744 322.364 279.122 320.522C281.627 317.172 283.721 310.848 283.721 310.848Z" fill="black" fill-opacity="0.1"></path>
<path d="M258.724 331.023C259.081 328.523 260.331 323.523 263.545 323.523C266.759 323.524 267.116 327.987 267.116 327.987C267.116 327.987 268.326 340.588 268.009 349.235C267.586 360.775 267.473 374.59 265.331 377.804C263.188 381.018 238.548 393.401 238.548 393.401L233.905 386.973C233.905 386.973 254.796 374.233 255.867 371.733C256.939 369.233 258.367 333.522 258.724 331.023Z" fill="#85d087"></path>
<path d="M258.723 331.023C259.08 328.523 260.33 323.523 263.544 323.523C266.758 323.524 267.115 327.987 267.115 327.987C267.115 327.987 268.325 340.588 268.008 349.235C267.585 360.775 267.472 374.59 265.33 377.804C263.187 381.018 238.546 393.401 238.546 393.401L233.904 386.973C233.904 386.973 254.795 374.233 255.866 371.733C256.938 369.233 258.366 333.522 258.723 331.023Z" fill="black" fill-opacity="0.2"></path>
<path d="M265.331 377.804C263.189 381.018 238.548 393.401 238.548 393.401L237.124 391.429C237.124 391.429 244.708 387.717 249.266 384.827C255.193 381.068 259.439 379.608 263.546 373.917C265.835 370.745 266.98 367.646 267.442 364.512C267.529 362.881 267.602 361.177 267.666 359.443C267.415 353.603 265.707 347.452 265.331 340.329C264.983 333.738 263.546 323.523 263.546 323.523C266.76 323.524 267.117 327.987 267.117 327.987C267.117 327.987 268.326 340.588 268.009 349.235C267.888 352.552 267.792 356.056 267.666 359.443C267.74 361.154 267.688 362.838 267.442 364.512C267.105 370.78 266.543 375.987 265.331 377.804Z" fill="black" fill-opacity="0.2"></path>
<path d="M276.044 403.161L277.83 382.984L261.046 383.877C261.046 383.877 259.522 401.375 256.403 402.268C253.285 403.161 223.044 401.658 217.687 401.48C212.33 401.301 203.272 403.161 201.587 407.796C199.396 413.824 201.468 422.724 203.62 429.04C209.004 444.842 208.906 443.752 214.529 459.47C219.529 473.449 230.031 504.255 230.031 504.255L241.802 501.671C241.802 501.671 239.021 489.711 236.634 479.566C234.462 470.331 232.56 457.706 230.031 448.561C226.722 436.593 216.538 420.14 221.419 416.408C226.299 412.676 276.044 403.161 276.044 403.161Z" fill="#9ff098"></path>
<path d="M276.045 403.161L277.83 382.984L261.046 383.877C261.046 383.877 259.522 401.375 256.404 402.268C253.285 403.161 223.044 401.658 217.687 401.48C212.331 401.301 203.273 403.161 201.588 407.796C199.396 413.824 201.468 422.724 203.62 429.04C209.004 444.842 208.907 443.752 214.529 459.47C219.53 473.449 230.032 504.255 230.032 504.255L241.802 501.671C241.802 501.671 239.022 489.711 236.635 479.566C234.462 470.331 232.56 457.706 230.032 448.561C226.723 436.593 216.539 420.14 221.419 416.408C226.3 412.676 276.045 403.161 276.045 403.161Z" fill="black" fill-opacity="0.3"></path>
<path d="M221.418 416.405C226.299 412.673 276.044 403.158 276.044 403.158C276.044 403.158 258.879 405.826 246.969 407.793C235.352 409.711 220.27 411.238 216.825 414.396C213.381 417.554 215.964 421.286 216.825 424.444C217.686 427.601 223.175 438.934 226.299 448.558C230.286 460.844 231.23 468.107 234.05 480.712C235.937 489.146 238.643 502.362 238.643 502.362L241.801 501.668C241.801 501.668 239.021 489.708 236.634 479.563C234.461 470.328 232.56 457.703 230.031 448.558C226.722 436.591 216.538 420.137 221.418 416.405Z" fill="black" fill-opacity="0.37"></path>
<path d="M242.17 390.433C240.653 392.004 239.026 393.543 239.026 393.543C239.026 393.543 237.479 394.627 236.729 395.84C236.386 396.395 236.119 397.128 235.869 397.848C235.452 399.048 234.145 400.434 235.007 401.007C235.869 401.58 236.669 399.852 237.218 398.909C237.628 398.205 237.859 397.424 238.165 396.988C238.739 396.17 240.229 395.09 240.462 395.265C240.68 395.429 239.791 395.84 238.452 397.172C238.002 398.004 237.564 398.475 237.218 399.468C236.347 401.007 235.486 401.765 235.869 402.052C236.252 402.339 237.449 402.653 238.165 401.191C238.61 400.28 239.377 399.475 239.791 398.71C240.94 397.172 242.144 396.722 242.356 396.786C242.56 396.848 241.514 397.459 240.258 398.71C239.948 399.422 239.505 399.846 239.217 400.616C238.643 401.478 238.069 402.052 238.356 402.339C238.643 402.626 239.612 402.523 240.079 402.052C240.469 401.657 240.653 401.478 240.94 401.191C241.295 400.472 241.801 400.042 242.356 399.468C243.207 398.588 244.122 397.848 244.282 398.136C244.385 398.32 243.236 398.607 242.662 399.468C242.271 400.055 242.17 400.042 241.514 400.616C240.94 401.478 239.971 401.868 240.258 402.339C240.545 402.81 241.883 402.626 242.662 401.765C243.182 401.191 243.816 400.72 244.282 400.329C244.967 399.755 245.847 399.917 246.968 399.468C248.404 398.894 249.552 398.136 251.084 396.414C252.059 395.317 253.116 394.777 253.954 394.219C255.207 393.384 256.743 392.945 256.743 392.945L253.093 386.94C253.093 386.94 251.657 387.801 249.935 388.375C248.947 388.653 247.548 388.603 246.203 388.95L242.17 390.433Z" fill="#E4B8BA"></path>
<path d="M258.739 346.07C258.739 340.328 265.916 324.654 265.916 324.654C265.916 324.654 270.702 331.429 277.399 331.429C286.298 331.429 297.104 322.242 297.104 322.242L299.217 323.49C299.217 323.49 303.787 323.643 303.81 330.28C303.835 337.028 299.304 350.313 298.184 356.772C296.863 364.389 292.614 371.2 293.188 375.926C293.763 380.652 299.191 389.005 301.227 394.013C303.263 399.02 305.14 404.922 303.183 406.357C301.227 407.792 275.865 403.732 275.865 403.732L257.303 401.477C257.303 401.477 259.771 390.281 260.748 387.41C261.725 384.539 265.415 376.579 265.916 374.491C266.985 370.03 265.168 363.949 262.184 356.772C259.884 351.24 258.739 351.812 258.739 346.07Z" fill="#85d087"></path>
<path d="M303.185 406.36C301.228 407.221 275.866 403.735 275.866 403.735C275.866 403.735 296.026 405.325 297.105 401.479C298.184 397.634 295.199 391.432 295.199 391.432C295.199 391.432 288.883 381.671 288.883 375.929C288.883 370.188 291.18 364.446 293.19 362.723C295.199 361.001 303.812 330.283 303.812 330.283C303.836 337.031 299.305 350.316 298.185 356.775C296.864 364.392 292.615 371.203 293.19 375.929C293.764 380.655 299.192 389.008 301.228 394.015C303.264 399.023 305.141 405.499 303.185 406.36Z" fill="black" fill-opacity="0.05"></path>
<path d="M253.546 395.366L248.978 387.985C248.978 387.985 268.902 376.087 275.33 370.126C279.437 366.318 280.26 357.447 282.829 349.771C285.539 341.675 287.293 337.094 289.436 331.38C291.045 327.088 295.761 322.199 300.149 323.524C304.9 324.958 304.434 331.38 302.47 337.451C299.687 346.054 299.091 346.491 297.292 355.306C295.506 364.056 289.436 377.983 286.936 381.554C284.436 385.125 253.546 395.366 253.546 395.366Z" fill="#85d087"></path>
<path d="M253.546 395.366L248.978 387.985C248.978 387.985 268.902 376.087 275.33 370.126C279.437 366.318 280.26 357.447 282.829 349.771C285.539 341.675 287.293 337.094 289.436 331.38C291.045 327.088 295.761 322.199 300.149 323.524C304.9 324.958 304.434 331.38 302.47 337.451C299.687 346.054 299.091 346.491 297.292 355.306C295.506 364.056 289.436 377.983 286.936 381.554C284.436 385.125 253.546 395.366 253.546 395.366Z" fill="black" fill-opacity="0.2"></path>
<path d="M286.937 381.556C284.437 385.127 253.547 395.367 253.547 395.367L252.177 393.154C252.177 393.154 263.165 390.916 269.649 387.986C276.169 385.041 280.651 383.787 285.152 378.226C288.847 373.66 289.084 369.933 291.18 364.446C294.069 356.883 294.547 352.253 297.293 344.637C299.591 338.264 303.809 328.561 303.809 328.561C304.091 331.138 303.478 334.341 302.471 337.453C299.688 346.056 299.092 346.492 297.293 355.308C295.507 364.058 289.437 377.985 286.937 381.556Z" fill="black" fill-opacity="0.2"></path>
<path d="M259.026 301.862L268.5 289.422C268.5 289.422 270.163 294.969 274.529 298.417C277.788 300.99 276.251 312.613 276.251 315.642C276.251 328.14 262.496 343.763 276.251 353.536C279.079 355.546 297.783 354.972 295.486 336.024C294.588 328.614 301.464 328.684 296.347 312.197C293.763 303.871 292.328 283.488 284.079 281.922C276.87 280.554 271.974 275.595 265.509 279.065C261.036 281.466 259.051 284.541 257.653 289.422C256.061 294.977 259.026 301.862 259.026 301.862Z" fill="black" stroke="black" stroke-width="0.3571"></path>
<path d="M271.64 401.272L245.541 400.168L246.296 402.668H272.681V402.357C272.681 401.775 272.222 401.297 271.64 401.272Z" fill="#9D9D9D"></path>
<path d="M194.196 373.056L203.045 402.669H246.297L245.541 400.169L236.082 372.6C235.76 371.661 234.871 371.035 233.878 371.049L195.28 371.579C194.518 371.59 193.978 372.326 194.196 373.056Z" fill="#9ff098"></path>
<path d="M194.196 373.056L203.045 402.669H246.297L245.541 400.169L236.082 372.6C235.76 371.661 234.871 371.035 233.878 371.049L195.28 371.579C194.518 371.59 193.978 372.326 194.196 373.056Z" fill="#9D9D9D"></path>
<path d="M193.621 373.631L202.239 402.468C202.377 402.928 202.8 403.243 203.28 403.243H245.722L245.529 402.605L244.967 400.743L235.508 373.174C235.186 372.235 234.297 371.61 233.304 371.623L194.706 372.154C193.944 372.164 193.403 372.9 193.621 373.631Z" fill="#C4C4C4"></path>
<path d="M272.706 403.241H245.721L245.528 402.604H272.706V403.241Z" fill="#C4C4C4"></path>
<path d="M384.224 142.651C384.224 153.312 392.867 161.956 403.529 161.956C408.356 161.956 411.975 162.559 414.992 164.67C418.008 166.782 423.664 170.703 426.152 172.513C428.641 174.323 433.044 174.926 436.106 171.608C439.169 168.29 438.519 162.86 436.106 160.447L427.66 152.001C425.247 149.588 423.437 148.08 422.834 142.651C421.657 132.054 414.191 123.346 403.529 123.346C392.867 123.346 384.224 131.989 384.224 142.651Z" fill="#c6e6c3"></path>
<path d="M422.833 142.65C421.655 132.054 414.19 123.346 403.528 123.346C400.135 123.346 396.946 124.221 394.175 125.759C394.175 125.759 396.365 135.795 400.21 140.84C405.062 147.207 409.542 150.492 417.403 152.001C421.337 152.756 427.659 152.001 427.659 152.001C425.246 149.588 423.436 148.08 422.833 142.65Z" fill="white" fill-opacity="0.2"></path>
<path d="M436.105 160.447C438.518 162.861 439.168 168.29 436.105 171.608C433.042 174.926 428.64 174.323 426.151 172.513C425.077 171.732 423.414 170.558 421.627 169.305C421.627 169.305 424.052 164.593 426.151 161.956C428.122 159.479 431.882 156.225 431.882 156.225L436.105 160.447Z" fill="black" fill-opacity="0.2"></path>
<path fill-rule="evenodd" clip-rule="evenodd" d="M432.662 156.977C432.662 156.977 432.662 156.977 432.662 156.977L432.625 157.016C432.6 157.042 432.562 157.08 432.514 157.13C432.417 157.231 432.276 157.377 432.101 157.561C431.75 157.93 431.261 158.446 430.711 159.039C429.605 160.232 428.28 161.706 427.331 162.898C426.291 164.205 425.015 165.856 423.997 167.183C423.489 167.846 423.046 168.427 422.73 168.842C422.572 169.049 422.446 169.215 422.359 169.329L422.226 169.505L421.024 168.595C419.821 167.684 419.821 167.684 419.821 167.684L419.957 167.506C420.044 167.391 420.171 167.224 420.33 167.015C420.647 166.598 421.092 166.014 421.604 165.348C422.624 164.017 423.913 162.349 424.971 161.019C425.994 159.735 427.383 158.192 428.499 156.988C429.061 156.383 429.56 155.855 429.918 155.479C430.098 155.291 430.242 155.141 430.343 155.037C430.393 154.985 430.431 154.945 430.458 154.917L430.499 154.875C430.499 154.875 430.5 154.875 431.581 155.926L430.499 154.875C431.08 154.278 432.035 154.264 432.632 154.845C433.229 155.425 433.243 156.38 432.662 156.977ZM421.024 168.595L419.821 167.684C419.318 168.348 419.449 169.294 420.113 169.797C420.777 170.3 421.723 170.169 422.226 169.505L421.024 168.595ZM435.273 157.191C435.907 157.73 435.984 158.682 435.444 159.317L434.295 158.339L433.147 157.362C433.687 156.727 434.639 156.651 435.273 157.191ZM423.738 171.309C422.529 170.408 422.529 170.408 422.529 170.408L422.568 170.356L422.677 170.21C422.772 170.083 422.91 169.899 423.082 169.671C423.427 169.215 423.908 168.58 424.456 167.866C425.549 166.443 426.925 164.684 428.017 163.396C428.934 162.315 430.217 160.807 431.27 159.568C431.796 158.949 432.265 158.398 432.603 158.001L433.147 157.362L434.295 158.339L435.444 159.317L434.9 159.955C434.563 160.352 434.094 160.903 433.567 161.522C432.514 162.761 431.233 164.268 430.318 165.347C429.276 166.576 427.937 168.286 426.849 169.703C426.307 170.409 425.831 171.036 425.491 171.487C425.32 171.713 425.184 171.894 425.091 172.019L424.984 172.162L424.948 172.21L423.738 171.309ZM423.738 171.309L422.529 170.408C422.031 171.076 422.169 172.021 422.837 172.519C423.505 173.016 424.45 172.878 424.948 172.21L423.738 171.309ZM435.893 160.04C436.453 159.423 437.407 159.377 438.024 159.937C438.64 160.496 438.687 161.45 438.127 162.067L437.01 161.054L435.893 160.04ZM428.293 174.284C428.293 174.284 428.293 174.284 428.293 174.284L428.329 174.232C428.353 174.198 428.389 174.147 428.436 174.08C428.529 173.948 428.664 173.756 428.834 173.517C429.174 173.038 429.648 172.375 430.189 171.634C431.278 170.141 432.607 168.37 433.636 167.157C434.539 166.092 435.661 164.821 436.561 163.811C437.01 163.308 437.402 162.871 437.681 162.561C437.821 162.405 437.933 162.282 438.009 162.197L438.127 162.067L437.01 161.054C435.893 160.04 435.893 160.04 435.893 160.04L435.772 160.174C435.694 160.26 435.581 160.385 435.44 160.542C435.158 160.855 434.762 161.296 434.309 161.804C433.405 162.819 432.264 164.112 431.335 165.206C430.229 166.51 428.844 168.359 427.752 169.856C427.202 170.61 426.72 171.285 426.375 171.77C426.202 172.013 426.064 172.21 425.968 172.345C425.921 172.413 425.884 172.466 425.858 172.502L425.82 172.557C425.82 172.557 425.819 172.558 427.056 173.421L425.82 172.557C425.343 173.24 425.51 174.181 426.193 174.658C426.876 175.134 427.817 174.967 428.293 174.284Z" fill="#522A7A"></path>
<path d="M377.587 122.141L382.112 126.063M398.099 111.584V117.013M419.213 117.013L415.594 121.538M370.951 141.145L376.682 140.843M378.191 160.45L382.112 156.83" stroke="#6EE7FB" stroke-width="2.41306" stroke-linecap="round"></path>
<path d="M197.064 174.592V140.171C197.064 136.651 199.918 133.797 203.438 133.797H300.965C304.485 133.797 307.339 136.651 307.339 140.171V174.592C307.339 178.113 304.485 180.966 300.965 180.966H228.298L212.362 190.528L214.275 180.966H203.438C199.918 180.966 197.064 178.113 197.064 174.592Z" fill="#c6e6c3"></path>
<path d="M197.064 174.592V140.171C197.064 136.651 199.918 133.797 203.438 133.797H300.965C304.485 133.797 307.339 136.651 307.339 140.171V174.592C307.339 178.113 304.485 180.966 300.965 180.966H228.298L212.362 190.528L214.275 180.966H203.438C199.918 180.966 197.064 178.113 197.064 174.592Z" fill="black" fill-opacity="0.2"></path>
<path d="M197.064 172.041V137.62C197.064 134.1 199.918 131.246 203.439 131.246H300.965C304.485 131.246 307.339 134.1 307.339 137.62V172.041C307.339 175.562 304.485 178.416 300.965 178.416H228.298L212.363 187.977L214.275 178.416H203.439C199.918 178.416 197.064 175.562 197.064 172.041Z" fill="#c6e6c3"></path>
<path fill-rule="evenodd" clip-rule="evenodd" d="M209.175 141.445C209.175 140.389 210.031 139.533 211.087 139.533H294.59C295.646 139.533 296.502 140.389 296.502 141.445C296.502 142.502 295.646 143.358 294.59 143.358H211.087C210.031 143.358 209.175 142.502 209.175 141.445ZM209.175 151.007C209.175 149.951 210.031 149.095 211.087 149.095H294.59C295.646 149.095 296.502 149.951 296.502 151.007C296.502 152.063 295.646 152.919 294.59 152.919H211.087C210.031 152.919 209.175 152.063 209.175 151.007ZM209.175 159.931C209.175 158.875 210.031 158.019 211.087 158.019H294.59C295.646 158.019 296.502 158.875 296.502 159.931C296.502 160.987 295.646 161.843 294.59 161.843H211.087C210.031 161.843 209.175 160.987 209.175 159.931ZM209.175 168.217C209.175 167.161 210.031 166.305 211.087 166.305H251.882C252.939 166.305 253.795 167.161 253.795 168.217C253.795 169.274 252.939 170.13 251.882 170.13H211.087C210.031 170.13 209.175 169.274 209.175 168.217Z" fill="#9ff098"></path>
<path d="M511.067 142.578V117.101C511.067 114.495 513.179 112.383 515.785 112.383H587.971C590.577 112.383 592.689 114.495 592.689 117.101V142.578C592.689 145.184 590.577 147.296 587.971 147.296H534.185L522.39 154.374L523.805 147.296H515.785C513.179 147.296 511.067 145.184 511.067 142.578Z" fill="#c6e6c3"></path>
<path d="M511.067 142.578V117.101C511.067 114.495 513.179 112.383 515.785 112.383H587.971C590.577 112.383 592.689 114.495 592.689 117.101V142.578C592.689 145.184 590.577 147.296 587.971 147.296H534.185L522.39 154.374L523.805 147.296H515.785C513.179 147.296 511.067 145.184 511.067 142.578Z" fill="black" fill-opacity="0.2"></path>
<path d="M511.067 140.692V115.214C511.067 112.608 513.179 110.496 515.785 110.496H587.971C590.577 110.496 592.689 112.608 592.689 115.214V140.692C592.689 143.297 590.577 145.41 587.971 145.41H534.185L522.39 152.487L523.806 145.41H515.785C513.179 145.41 511.067 143.297 511.067 140.692Z" fill="#c6e6c3"></path>
<circle cx="528.432" cy="129.478" r="6.51685" fill="#9ff098"></circle>
<circle cx="552.328" cy="129.478" r="6.51685" fill="#9ff098"></circle>
<circle cx="576.224" cy="129.478" r="6.51685" fill="#9ff098"></circle>
<path d="M173.429 151.229C173.429 151.229 78.0584 128.392 115.863 78.9097C138.29 49.5556 346.006 74.5418 415.331 78.9097C493.308 83.8227 530.695 -10.897 604.667 14.2582C684.853 41.5267 696.872 95.9591 690.584 151.229C680.265 241.924 587.098 187.616 587.098 187.616M587.098 187.616L613.709 168.608M587.098 187.616L604.667 213.684" stroke="#FD9B4D" stroke-width="3.07857" stroke-linecap="round" stroke-linejoin="round" stroke-dasharray="8.21 8.21"></path>
</svg>
